<?xml version="1.0" encoding="utf-8"?>
<!-- Generator: Adobe Illustrator 24.2.0, SVG Export Plug-In . SVG Version: 6.00 Build 0)  -->
<svg version="1.1" id="Layer_1" xmlns="http://www.w3.org/2000/svg" xmlns:xlink="http://www.w3.org/1999/xlink" x="0px" y="0px"
	 viewBox="0 0 99.9 73" style="enable-background:new 0 0 99.9 73;" xml:space="preserve">
<style type="text/css">
	.st0{filter:url(#Adobe_OpacityMaskFilter);}
	.st1{fill-rule:evenodd;clip-rule:evenodd;fill:#FFFFFF;}
	.st2{mask:url(#crest-and-logo-b_1_);fill-rule:evenodd;clip-rule:evenodd;fill:#FFFFFF;}
	.st3{filter:url(#Adobe_OpacityMaskFilter_1_);}
	.st4{mask:url(#crest-and-logo-b_2_);fill-rule:evenodd;clip-rule:evenodd;fill:#FFFFFF;}
	.st5{fill:none;stroke:#FFFFFF;stroke-width:0.925;}
	.st6{fill:none;stroke:#FFFFFF;stroke-width:0.65;}
</style>
<g>
	<g transform="translate(0 .178)">
		<g transform="translate(0 65.774)">
			<defs>
				<filter id="Adobe_OpacityMaskFilter" filterUnits="userSpaceOnUse" x="0" y="0.1" width="50" height="6.9">
					<feColorMatrix  type="matrix" values="1 0 0 0 0  0 1 0 0 0  0 0 1 0 0  0 0 0 1 0"/>
				</filter>
			</defs>
			<mask maskUnits="userSpaceOnUse" x="0" y="0.1" width="50" height="6.9" id="crest-and-logo-b_1_">
				<g class="st0">
					<polygon id="crest-and-logo-a_1_" class="st1" points="0,6.9 0,0.1 99.9,0.1 99.9,6.9 					"/>
				</g>
			</mask>
			<path class="st2" d="M1.3,3.9C1.3,3.9,1.3,3.9,1.3,3.9C1.2,3.9,1.2,4,1.2,4c0.1,0.1,0.2,0.2,0.4,0.3c-0.1,0-0.1,0-0.2,0
				c0.1,0,0.2,0,0.2,0C2.2,4.5,3,4.5,3.5,4.5c0.2,0,0.5,0,0.7-0.1c1.3,0,2.7,0,3.9,0c2.3,0.1,4.6,0.1,6.7,0.3
				C15,4.7,15,4.5,15.1,4.5c0.2-0.1,0.6,0,0.8,0.1c0.9,0.2,1.9,0.5,2.8,0.3c0,0-0.2-0.1-0.2-0.2c0.3-0.1,0.5-0.1,0.7-0.2
				c0.9-0.1,1.8,0.4,2.7,0.4c0.4,0,1-0.1,1.3-0.1c0.4,0,0.9,0,1.3,0c0.1,0,0.3,0,0.3,0c0.1,0,0.2-0.2,0.3-0.2c0.1,0,0.4,0,0.5,0
				c1.3,0,2.6,0.1,3.8,0.2c2.2,0.1,4.4,0.2,6.5-0.1c0.7-0.1,1.4-0.1,2.1-0.1c1.4,0.1,2.6,0.5,3.9,0.6c0,0-0.1-0.1-0.1-0.1
				c-0.1-0.1-0.3-0.2-0.4-0.3c2.1,0.4,3.9,0.4,6,0.7c0.7,0.1,1.6,0.2,2.5,0.3c0,0,0,0.8,0,1.2c-2.3,0-3.9,0-6,0
				c-3.3,0-6.3,0.2-9.9,0.1c-2.2-0.1-4.2-0.1-6.3-0.3c-3.1-0.2-6.3-0.4-9.4-0.5C12.3,5.9,5.8,5.7,0.3,4.7C0.2,4.6,0,4.5,0,4.3
				C0,4.1,0.2,4,0.3,3.9c0.3-0.1,0.6-0.3,0.9-0.4L1.3,3.9 M37,0.7c-0.3-0.2-0.6-0.4-1-0.6c1.2,0.1,2.5,0.1,3.8,0.1c0.3,0,0.6,0,1,0
				c0.3,0,1.6,0,1.8,0c0.9,0.7,3,2.1,7.3,4.3c0.1,0-0.9-0.1-1.3-0.2c-3.7-0.6-6.7-1.6-9.5-3C38.5,1.2,38,1,37.3,1
				C37.2,0.9,37.1,0.8,37,0.7"/>
			<defs>
				<filter id="Adobe_OpacityMaskFilter_1_" filterUnits="userSpaceOnUse" x="49.8" y="3.5" width="50.1" height="3.5">
					<feColorMatrix  type="matrix" values="1 0 0 0 0  0 1 0 0 0  0 0 1 0 0  0 0 0 1 0"/>
				</filter>
			</defs>
			<mask maskUnits="userSpaceOnUse" x="49.8" y="3.5" width="50.1" height="3.5" id="crest-and-logo-b_2_">
				<g class="st3">
					<polygon id="crest-and-logo-a_2_" class="st1" points="0,6.9 0,0.1 99.9,0.1 99.9,6.9 					"/>
				</g>
			</mask>
			<path class="st4" d="M98.7,3.9C98.7,3.9,98.7,3.9,98.7,3.9c0.1,0,0.1,0.1,0,0.1c-0.1,0.1-0.2,0.2-0.4,0.3c0.1,0,0.1,0,0.2,0
				c-0.1,0-0.2,0-0.2,0c-0.6,0.2-1.4,0.2-1.9,0.1c-0.2,0-0.5,0-0.7-0.1c-1.3,0-2.7,0-3.9,0c-2.3,0.1-4.6,0.1-6.7,0.3
				C85,4.7,85,4.5,84.8,4.5c-0.2-0.1-0.6,0-0.8,0.1c-0.9,0.2-1.9,0.5-2.8,0.3c0,0,0.2-0.1,0.2-0.2c-0.3-0.1-0.5-0.1-0.7-0.2
				c-0.9-0.1-1.8,0.4-2.7,0.4c-0.4,0-1-0.1-1.3-0.1c-0.4,0-0.9,0-1.3,0c-0.1,0-0.3,0-0.3,0c-0.1,0-0.2-0.2-0.3-0.2
				c-0.1,0-0.4,0-0.5,0c-1.3,0-2.6,0.1-3.8,0.2c-2.2,0.1-4.4,0.2-6.5-0.1c-0.7-0.1-1.4-0.1-2.1-0.1c-1.4,0.1-2.6,0.5-3.9,0.6
				c0,0,0.1-0.1,0.1-0.1c0.1-0.1,0.3-0.2,0.4-0.3c-2.1,0.4-3.9,0.4-6,0.7c-0.7,0.1-1.6,0.2-2.5,0.3c-0.2,0.6-0.2,1,0,1.2
				c2.3,0,3.9,0,6,0c3.3,0,6.3,0.2,9.9,0.1C68,6.8,70,6.8,72.1,6.7c3.1-0.2,6.3-0.4,9.4-0.5c6.1-0.2,12.6-0.4,18.1-1.5
				c0.1-0.1,0.3-0.2,0.3-0.4c0-0.2-0.2-0.3-0.3-0.4c-0.3-0.1-0.6-0.3-0.9-0.4L98.7,3.9"/>
		</g>
		<path class="st1" d="M63.1,66.6c0.3-0.2,0.7-0.4,1-0.6c-1.2,0.1-2.5,0.1-3.8,0.1c-0.3,0-0.6,0-1,0c-0.3,0-1.6,0-1.8,0
			c-0.9,0.7-3,2.1-7.3,4.3c-0.1,0,0.9-0.1,1.3-0.2c3.7-0.6,6.8-1.6,9.6-3c0.5-0.2,1-0.5,1.7-0.5C62.8,66.7,62.9,66.6,63.1,66.6
			 M59.9,52.6c-0.1,0-0.4,0.1-0.4,0.1c0,0,0-0.1-0.1-0.1c-0.9,0.1-1.9,0.3-3,0.6c-0.4,0.1-0.8,0.2-1.2,0.2c-1.8,0-3.1-1.1-5.3-1.1
			c0,0,0,0,0,0c-2.1,0-3.5,1.1-5.3,1.1c-0.4,0-0.8-0.1-1.2-0.2c-1.2-0.4-2.2-0.6-3.1-0.7c0,0.1,0.1,0.2,0.1,0.3
			c0.1,0.2,0.2,0.2,0.4,0.2c0.6,0.1,1.1,0.3,1.6,0.4c0.6,0.1,1.1,0.2,1.7,0.2c0.4,0,0.8,0,1.3,0c0.3,0,0.7-0.1,1-0.1
			c0.3-0.1,0.5-0.1,0.7-0.2c0.5-0.1,1-0.3,1.6-0.4c0.5-0.1,1.1-0.2,1.7-0.3c0.3,0,0.6,0,0.9,0c0.5,0.1,1.1,0.2,1.5,0.3
			c0.2,0.1,0.4,0.2,0.7,0.2c0.8,0.2,1.7,0.4,2.6,0.2c1.1-0.1,2-0.3,2.9-0.6c0.5-0.2,1-0.3,1.5-0.4c-0.1,0-0.3,0-0.5,0
			C60.1,52.6,60,52.6,59.9,52.6z M62.9,49c-0.1,0.2-0.4,0.5-0.6,0.7c-0.1,0.1,0-0.1,0.1-0.1c0.1-0.1,0.2-0.4,0.2-0.5
			c0,0,0-0.1,0-0.2c0-0.1,0.3-0.2,0.3-0.2C63,48.8,62.9,48.9,62.9,49z M61.6,49c0,0.1-0.1,0.3-0.2,0.5c-0.2,0.2-0.4,0.4-0.5,0.4
			c0,0,0,0,0,0c0.2-0.3,0.5-0.9,0.8-1.2C61.8,48.6,61.6,49,61.6,49z M60,47.8c-0.1,0.1-0.2,0.4-0.3,0.4c0,0-0.2,0-0.2,0
			c0,0,0.2-0.2,0.2-0.3c0.1-0.2,0.2-0.3,0.3-0.5c0,0,0,0,0,0C60.1,47.4,60,47.8,60,47.8z M59.5,49.5c-0.3,0.2-0.5,0.2-0.8,0.3
			c-0.1,0-0.4,0.1-0.5,0.1c0,0,0.1-0.2,0.2-0.2c0.2-0.2,0.4-0.5,0.6-0.7c0,0,0.2-0.1,0.1-0.2c0-0.1-0.3,0-0.4,0
			c-0.4,0.1-0.7,0.2-1,0.4c-0.1,0,0-0.1,0-0.1c0.1-0.1,0.5-0.3,0.6-0.3c0.1,0,0.2,0,0.3-0.1c0.2,0,0.5-0.1,0.7-0.1
			c0.1,0,0.1,0,0,0.1c-0.1,0.2-0.2,0.4-0.4,0.6c0,0-0.2,0.2-0.2,0.2c0,0.1,0.2,0,0.3,0c0.3,0,0.5-0.2,0.7-0.2
			C59.9,49.2,59.6,49.5,59.5,49.5z M59.8,50.3c0,0.1-0.3,0.2-0.4,0.3c-0.2,0.1-0.6,0-0.8,0.1c-0.2,0-0.1,0.1,0,0.1
			c0.1,0,0.3,0,0.5,0c0,0,0.1,0,0.1,0c0,0-0.2,0.2-0.2,0.2c-0.2,0.1-0.6,0-1,0c-0.3,0,0.1,0.1,0.2,0.2c0.1,0,0.5,0,0.4,0.1
			c-0.2,0.1-0.4,0.1-0.6,0.1c-0.3,0-0.7,0-1,0.1c-0.2,0-0.2,0.2-0.4,0.3c-0.3,0.2-0.8,0.2-1.1,0c-0.2-0.1-0.5-0.2-0.7-0.2
			c0.5-0.1,0.8-0.4,1.1-0.5c0.2-0.1,0.6-0.3,0.9-0.3c0.1,0,0.1,0.1,0.2,0.1c0,0,0.1-0.1,0.1-0.1c0.3-0.2,0.8-0.4,1.2-0.4
			C58.8,50.3,59.4,50.4,59.8,50.3C59.8,50.3,59.9,50.2,59.8,50.3z M54.3,48.7c0,0,0.2-0.1,0.2-0.1c0.1,0,0.1,0,0.2,0
			c0.3,0,0.5,0,0.6,0.2c0,0.1,0,0.2-0.1,0.3c0,0-0.1,0.1-0.1,0.1c0,0,0-0.2,0-0.2c-0.1-0.2-0.5-0.1-0.7-0.2
			C54.5,48.8,54.3,48.7,54.3,48.7z M54.2,49.5c0,0,0-0.2,0-0.3c-0.1-0.1-0.2-0.2-0.4-0.2c-0.1,0-0.1,0-0.2-0.1c0,0-0.2-0.1-0.2-0.1
			c0-0.1,0.2-0.1,0.3-0.1C54.3,48.6,54.6,49.1,54.2,49.5z M53.4,49.6c0,0-0.1-0.2-0.1-0.2c-0.1-0.1-0.2-0.2-0.4-0.2
			c-0.1,0-0.2,0.1-0.3,0.1c0,0-0.2-0.1-0.2-0.2c0,0,0.2-0.1,0.2-0.1c0.1,0,0.1-0.1,0.2-0.1c0.3,0,0.5,0.1,0.5,0.4
			C53.5,49.4,53.4,49.6,53.4,49.6z M52.4,49.7C52.3,49.9,52.4,49.8,52.4,49.7c-0.1-0.3-0.5-0.3-0.7-0.2c-0.1,0-0.2,0.2-0.3,0.2
			c0,0-0.2,0-0.2,0c0,0,0.1-0.1,0.1-0.1c0.2-0.2,0.5-0.3,0.8-0.4C52.5,49.2,52.6,49.4,52.4,49.7z M51.4,50.4c0,0-0.2-0.2-0.3-0.2
			c-0.3-0.1-0.7,0.3-0.8,0.3c0,0-0.2,0-0.2,0c0,0,0.1-0.2,0.2-0.2c0.2-0.2,0.5-0.3,0.9-0.3c0.2,0,0.4,0,0.4,0.2
			C51.5,50.1,51.4,50.3,51.4,50.4z M50.4,51c0,0-0.3-0.1-0.4-0.1c-0.2,0-0.6,0.1-0.8,0.2c-0.1,0,0.1-0.2,0.2-0.2
			c0.1-0.1,0.2-0.1,0.4-0.2c0.2,0,0.5,0.1,0.5,0.2C50.4,50.8,50.4,50.9,50.4,51z M49.1,49.7c0-0.1,0.4-0.1,0.5-0.1
			c0.2,0,0.5,0.1,0.5,0.2c0,0.1,0.1,0.3,0,0.2c-0.1-0.1-0.3-0.2-0.6-0.2C49.4,49.8,49.3,49.9,49.1,49.7
			C49.2,49.7,49.1,49.7,49.1,49.7z M51.1,49.3C51.1,49.4,51.1,49.4,51.1,49.3c-0.1-0.2-0.2-0.4-0.3-0.4c-0.2-0.1-0.3,0.1-0.5,0
			c0,0-0.2-0.1-0.2-0.1c0,0,0.3-0.1,0.4-0.1C50.9,48.6,51.3,48.9,51.1,49.3z M51.6,48.3c-0.2,0-0.3,0.2-0.6,0.2
			c-0.2,0-0.2,0-0.1-0.1c0.2-0.2,0.3-0.3,0.7-0.3c0.5,0,0.8,0.2,0.6,0.6c0,0-0.1,0.2-0.1,0.2c0,0,0-0.1,0-0.1
			C52,48.5,51.9,48.3,51.6,48.3z M52.6,47.9c-0.2,0-0.2,0.2-0.5,0.1c0,0-0.1,0-0.1,0c0,0,0.3-0.2,0.4-0.3c0,0,0.1,0,0.2,0
			c0.5,0,0.9,0.3,0.6,0.7c0,0-0.1,0.2-0.1,0.2c0,0,0-0.2,0-0.2C53.1,48.1,52.9,47.9,52.6,47.9z M49.1,50.2c0,0-0.1-0.1-0.1-0.1
			c-0.3-0.3-0.8,0.1-1,0.2c-0.1,0-0.2,0.1-0.2,0c0.2-0.6,0.5-1.2,1-1.4c0.1-0.1,0.3-0.1,0.4-0.1c0.1,0,0.2-0.3,0.2-0.4
			c0.1-0.2,0.3-0.3,0.5-0.4c0.1-0.1,0.1,0,0.2-0.1c0.1-0.2,0.5-0.5,0.8-0.6c0.2-0.1,0.4,0,0.5,0c0.1,0,0.2-0.2,0.3-0.3
			c0.2-0.1,0.5-0.2,0.8-0.3c0.3,0,0.6,0.1,0.8,0.2c0.1,0.1,0.2,0.2,0.2,0.3c0,0-0.3-0.2-0.4-0.2c-0.3-0.1-0.8,0-1,0
			c-0.1,0-0.3,0.1-0.3,0.2c0,0,0.3,0.4,0.3,0.4c-0.1,0.1-0.3-0.1-0.4-0.1c-0.3-0.1-0.7,0.1-0.9,0.2c0,0-0.3,0.2-0.3,0.2
			c0,0,0.3,0.2,0.4,0.2c0,0,0.1,0,0.1,0.1c0,0.1-0.3,0-0.4,0c-0.3,0-0.7,0.2-0.9,0.4c0,0-0.1,0.2-0.1,0.2c0,0,0,0,0.1,0
			c0,0,0.2,0.1,0.3,0.2c0,0,0.1,0.1,0,0.2c0,0-0.2-0.1-0.2-0.1c-0.5-0.1-0.8,0.2-1.1,0.4c-0.1,0.1-0.5,0.3-0.3,0.4
			c0.1,0,0.2,0,0.3,0c0.1,0,0.3,0.1,0.4,0.2C49.1,50,49.1,50.2,49.1,50.2z M48.7,51.1c0,0-0.1,0.1-0.2,0.1c0,0-0.1-0.2-0.1-0.3
			c-0.1-0.2-0.5-0.2-0.8-0.1c0.2-0.2,0.8-0.3,1-0.1C48.7,50.8,48.7,51,48.7,51.1z M47.3,50c0,0-0.3,0.2-0.3,0.2
			c-0.1,0,0-0.5,0.1-0.5c0-0.1,0,0.2,0.1,0.2c0.1,0,0.3-0.2,0.4-0.3c0.1,0,0.3-0.2,0.4-0.2c0,0-0.3,0.4-0.3,0.4
			C47.6,49.9,47.4,50,47.3,50z M47.5,49.1c0-0.3,0.2-0.4,0.3-0.6c0,0.1-0.1,0.5,0,0.5c0.1,0.1,0.2-0.1,0.3-0.1
			c0.2-0.1,0.4-0.2,0.7-0.3c0.2-0.1-0.1,0.2-0.2,0.2c-0.3,0.2-0.5,0.3-0.8,0.5c0,0-0.2,0.1-0.2,0.1C47.4,49.4,47.5,49.2,47.5,49.1z
			 M48.1,48.3c0.1-0.3,0.3-0.5,0.4-0.7c0,0-0.1,0.2-0.1,0.3c0,0.1-0.2,0.3,0,0.4c0.1,0,0.5-0.2,0.5-0.3c0.2-0.1,0.4-0.2,0.6-0.3
			c-0.3,0.3-0.6,0.5-1,0.7c-0.1,0-0.4,0.2-0.5,0.1C48.1,48.5,48.1,48.4,48.1,48.3z M48.9,47.4c0-0.1,0.1-0.2,0.1-0.2
			c0.1-0.1,0.3-0.2,0.3-0.2c0,0-0.4,0.5,0,0.5c0.1,0,0.4-0.2,0.6-0.3c0.1,0,0.3-0.1,0.2,0c-0.3,0.2-0.6,0.4-0.9,0.5
			c-0.1,0-0.3,0.1-0.3,0.1C48.8,47.6,48.9,47.4,48.9,47.4z M49.9,46.6c0.1-0.1,0.4-0.4,0.5-0.4c0,0-0.2,0.2-0.1,0.3
			c0.1,0.1,0.5,0,0.6,0c0,0,0.2-0.1,0.2,0c0,0-0.1,0.1-0.1,0.1c-0.1,0.1-0.5,0.1-0.7,0.2c-0.1,0-0.4,0.1-0.4,0.1
			C49.8,46.7,49.9,46.6,49.9,46.6z M51.4,45.9c0.1-0.1,0.3-0.3,0.4-0.3c0.2,0-0.3,0.3,0,0.3c0.1,0,0.4,0.1,0.6,0.1
			c0.1,0-0.1,0-0.2,0c-0.3,0-0.4,0-0.6,0C51.3,46.1,51.2,46.1,51.4,45.9z M52.5,45.6c0.6-0.3,1.5-0.3,2.3-0.2
			c-0.2,0-0.5,0.2-0.8,0.2c0,0-0.1-0.1-0.1-0.1c-0.3-0.1-0.5,0.1-0.7,0.1c-0.1,0-0.2,0-0.4,0C52.7,45.6,52.5,45.6,52.5,45.6
			C52.5,45.6,52.9,45.4,52.5,45.6z M53.6,44.8c0.1-0.1,0.1-0.3,0.1-0.4c0,0,0-0.1,0-0.1c0,0,0.2,0.2,0.2,0.3c0,0.1,0,0.3-0.1,0.3
			c0,0-0.2,0-0.3,0C53.5,45,53.6,44.8,53.6,44.8z M55.1,45.9c-0.3,0.1-0.5,0.2-0.8,0.2c-0.3,0.1-0.6,0.2-1.1,0.2
			C53.7,46,54.4,45.9,55.1,45.9z M55.3,45.2c0.2-0.2,0.3-0.5,0.4-0.8c0,0,0-0.2,0-0.2c0,0,0.1,0.4,0.1,0.6c-0.1,0.2-0.2,0.5-0.4,0.6
			c0,0-0.2,0-0.3,0C55.1,45.3,55.3,45.2,55.3,45.2z M54.3,47.9c0,0.1,0,0.4-0.1,0.2c0-0.2-0.2-0.3-0.4-0.3c-0.2,0-0.3,0.1-0.4,0.1
			c0,0-0.1-0.1-0.1-0.2c0-0.1,0.4-0.1,0.5-0.1C54.1,47.5,54.3,47.6,54.3,47.9z M53.9,46.7c-0.2-0.1-0.4-0.1-0.5-0.2
			c-0.1-0.1,0-0.1,0.1-0.1c0.4,0,0.7,0.1,0.9,0.4c0,0.1,0.1,0.3,0.1,0.3c0,0-0.1-0.1-0.1-0.1C54.2,46.9,54.1,46.8,53.9,46.7z
			 M55.2,46.8c-0.2-0.1-0.5-0.3-0.8-0.4c-0.1,0,0,0,0.1,0c0.1,0,0.3,0,0.4,0c0.1,0,0.3,0.3,0.4,0.4c0,0,0,0.2,0,0.2
			C55.4,47,55.2,46.8,55.2,46.8z M55.1,48.1C55.1,48.1,55.1,48.1,55.1,48.1c0-0.4-0.1-0.6-0.3-0.7c0,0-0.1,0-0.1,0c0,0,0-0.2,0-0.2
			c0,0,0.2,0,0.1,0c0.5,0,0.6,0.3,0.4,0.7C55.2,48,55.2,48.1,55.1,48.1C55.2,48.1,55.1,48.2,55.1,48.1z M56.2,46.5
			c0.1,0.1,0.2,0.4,0,0.2c-0.1-0.1-0.4-0.3-0.7-0.2c0,0-0.2-0.1-0.2-0.1c0-0.1,0.3-0.1,0.4-0.1C56,46.3,56.1,46.3,56.2,46.5z
			 M55.9,47C55.9,47,55.8,46.9,55.9,47c0-0.1,0.3-0.1,0.3,0c0.2,0.2,0.1,0.9-0.1,1.1c-0.1,0.1,0-0.2,0-0.3
			C56.1,47.5,56,47.1,55.9,47z M56.1,48.8c-0.1-0.1-0.2-0.1-0.3-0.1c0,0-0.1,0-0.1,0c0,0-0.1-0.2-0.1-0.2c0.1-0.1,0.8,0.1,0.8,0.2
			c0.2,0.2-0.2,0.4-0.3,0.5c0,0,0,0,0,0C56,49.1,56.2,49,56.1,48.8z M56.6,45.5c0.1-0.1,0.3-0.2,0.3-0.3c0,0,0-0.1,0.1-0.1
			c0,0-0.1,0.4-0.2,0.6c-0.1,0.1-0.2,0.3-0.3,0.3c0,0-0.2-0.2-0.2-0.2C56.2,45.7,56.5,45.5,56.6,45.5z M57.1,46.7
			c0.2-0.1,0.3-0.4,0.5-0.5c0,0,0,0,0,0c0,0.2-0.1,0.3-0.2,0.4c-0.1,0.1-0.2,0.4-0.3,0.4c0,0-0.1-0.1-0.1-0.2
			C57,46.8,57.1,46.7,57.1,46.7z M57.3,49.2c-0.1,0.1,0-0.2-0.1-0.3c-0.1-0.1-0.3-0.2-0.4-0.2c0,0-0.2,0-0.2-0.1
			c0-0.1,0.2-0.1,0.2-0.1c0.2,0,0.4,0,0.5,0.1C57.5,48.9,57.5,49.1,57.3,49.2z M58,47.5c0,0-0.3,0.3-0.4,0.4
			c-0.1,0.1-0.1,0.3-0.2,0.3c0,0-0.3,0-0.3,0c0,0,0.2-0.2,0.2-0.2c0.1-0.1,0.1-0.2,0.2-0.2C57.6,47.7,57.8,47.5,58,47.5z M58.1,46.9
			c0.1-0.2,0.3-0.4,0.3-0.6c0,0.3-0.1,0.8-0.4,0.9c0,0-0.2,0-0.2,0C57.8,47.1,58,46.9,58.1,46.9z M58.6,47.5c0.1,0,0.2,0,0.2,0
			c0.1,0.1,0.1,0.4,0,0.4c0,0-0.2-0.1-0.2-0.1c-0.2,0-0.4,0.2-0.6,0.3c0,0-0.2,0.1-0.2,0.1c0,0,0.1-0.3,0.2-0.3
			C58.2,47.7,58.4,47.6,58.6,47.5z M43.6,32.9c-0.5,0.1-0.6-0.6-0.2-0.7C43.9,32.1,43.9,32.8,43.6,32.9z M41.5,34.9
			c0,0-0.2-0.3-0.3-0.3c0,0,0-0.1-0.1-0.1c0,0,0.3-0.2,0.4-0.2c0.1,0,0.4,0.3,0.4,0.4C41.9,34.7,41.5,34.9,41.5,34.9z M63.5,47.9
			c0,0-0.1-0.2-0.1-0.2c-0.1,0-0.2,0.3-0.3,0.3c-0.3,0.4-0.6,0.6-1,0.9c0,0-0.1,0.1-0.1,0.1c0,0,0.1-0.2,0.1-0.3c0-0.1,0-0.2,0-0.3
			c0-0.1,0-0.4,0-0.5c0,0-0.2,0.2-0.2,0.3c-0.1,0.1-0.2,0.1-0.2,0.2c0,0-0.2,0.2-0.3,0.1c0,0,0.1-0.2,0.1-0.3c0-0.3,0-0.5-0.1-0.7
			c0-0.1-0.1-0.3-0.2-0.4c0,0-0.1-0.1-0.1-0.1c-0.1,0,0,0.2,0,0.2c-0.1,0.2-0.3,0.4-0.4,0.6c-0.1,0.1,0-0.2,0-0.3
			c0-0.6-0.3-0.9-0.6-1.3c-0.1-0.2-0.1,0-0.1,0.1c0,0.3-0.2,0.7-0.3,0.8c0,0-0.1,0.1-0.1,0.1c0,0,0-0.3,0-0.3c0-0.1,0-0.3-0.1-0.4
			c0,0-0.1-0.3-0.2-0.3c0,0,0,0.2-0.1,0.2c0,0-0.1,0.2-0.1,0.2c0,0,0-0.2,0-0.2c-0.1-0.5-0.2-0.8-0.5-1.1c-0.1-0.1-0.2-0.3-0.4-0.3
			c-0.1,0,0,0.2,0,0.3c0,0.1,0,0.1,0,0.2c0,0.1,0,0.2-0.1,0.2c0-0.1-0.2-0.2-0.3-0.2c-0.1,0-0.3,0.1-0.3,0.1c0,0,0.1-0.3,0.1-0.3
			c0-0.4-0.1-0.9-0.3-1.1c0,0-0.2-0.3-0.3-0.2c0,0-0.1,0.2-0.1,0.3c-0.1,0.2-0.1,0.4-0.2,0.5c0,0-0.1,0.2-0.2,0.2c0,0,0-0.3,0-0.3
			c-0.1-0.6-0.6-1-1.1-1.1c0,0-0.2,0-0.2,0c0,0,0.1,0.2,0.1,0.2c0.1,0.3-0.1,0.7-0.3,0.9c0,0-0.2,0.1-0.3,0.1c0,0,0-0.1-0.1-0.2
			c-0.2-0.3-0.6-0.7-1.2-0.6c0,0-0.2,0-0.2,0c0,0,0.2,0.1,0.2,0.1c0.2,0.2-0.2,0.7-0.3,0.8c-0.3,0.2-0.8,0.3-1.1,0.5
			c-1.2,0.4-2.2,0.9-3.1,1.7c-0.8,0.8-1.5,1.7-2.1,2.7c-0.4,0.7-0.9,1.5-1.9,1.3c-0.7-0.1-1.1-0.8-1.2-1.5c-0.1-0.7,0.2-1.4,0.4-2
			c0.4-1.6,1-3.1,1.4-4.6c0.4-1.5,0.9-3.6,1.1-4.6c0.8-4-0.1-5.6-0.6-6.2c-0.2-0.3-0.7-0.6-1.2-0.6c-1.1,0-1.7,0.6-2.1,1.3
			c0,0.1-0.1,0.3-0.1,0.3c0,0.1,0.2,0.1,0.2,0.2c0.2,0.2,0,0.4,0.1,0.7c0,0.1,0.1,0.4,0.2,0.4c-0.1,0-0.1-0.2-0.1-0.2
			c-0.1-0.2,0-0.5-0.1-0.7c0-0.1-0.2-0.3-0.2-0.2c0,0-0.1,0.2-0.1,0.2c-0.2,0.3-0.5,0.5-0.7,0.7c-0.4,0.3-0.9,0.5-1,1
			c0,0.1,0,0.3,0,0.3c0.1,0,0.1-0.1,0.2-0.1c0.1,0,0.2-0.1,0.3-0.1c0.5-0.2,0.9-0.4,1.3-0.6c0.2-0.1,0.5-0.3,0.8-0.3
			c0.2,0,0.5,0,0.8-0.1c0.2-0.1,0.5-0.2,0.6-0.3c0.2-0.1,0.4,0.3,0.5,0.4c0.1,0.2,0.1,0.4,0.1,0.6c0,0.3,0,0.7-0.1,1
			c0,0.3-0.1,0.7-0.1,1c-0.7,3.6-1.8,6.6-3.2,9.4c-0.6,1.2-1.3,2.4-1.6,4c-0.1,0.6-0.1,1.3,0.1,1.9c0.9,0.1,2,0.3,3.3,0.7
			c0.4,0.1,0.7,0.2,1.1,0.2c1.6,0,3-1.1,5.3-1.1c0,0,0,0,0,0c2.3,0,3.7,1.1,5.3,1.1c0.4,0,0.7-0.1,1.1-0.2c1.1-0.4,2-0.6,2.8-0.6
			c-0.1-0.1-0.2-0.1-0.3-0.1c-0.2,0-0.4,0.1-0.5,0.1c-0.2,0.1-0.5,0-0.7,0c0.1-0.1,0.2-0.1,0.4-0.2c0.1-0.1,0.2-0.2,0.4-0.3
			c0.3-0.1,1.2,0,1.4,0.2c0,0,0.1,0.1,0.2,0.2c0.1,0,0.2,0,0.3,0c0.5,0,0.9,0,1.3,0.1c0,0,0,0,0.1,0c0.2-0.1,0.4-0.3,0.5-0.5
			c0.2-0.2,0.4-0.4,0.5-0.7c0.2-0.3,0.3-0.5,0.4-0.9c0.1-0.2,0.2-0.3,0.3-0.6c0.1-0.2,0.2-0.4,0.2-0.7
			C63.6,48.7,63.6,48.2,63.5,47.9L63.5,47.9z"/>
		<path class="st1" d="M35.5,54c1.1-0.7,3-2.3,7.9-0.6c0.5,0.2,1.3,0.3,2.5-0.1c2.1-0.7,3.6-1.3,6.2-0.5c2.8,0.9,3,1,5.2,0.2
			c0.3-0.1,3.9-1.2,6.8,0.9c0.1,0.1-1.1,2.6-1.2,2.8c-0.1,0.1-2-1.8-6.7-0.3c-1,0.3-1.5,0.4-3.4-0.2c-1.4-0.5-2.5-1-5-0.3
			c-0.8,0.2-2.6,1.2-4.2,0.5c-0.5-0.2-2.2-0.7-4.3-0.5c-1.3,0.1-2.3,0.9-2.4,0.8c-0.1-0.1-0.7-1.4-0.7-1.5C36,55,35.5,54,35.5,54
			 M38.4,59.1c0.1,0,1.5-1,5.4,0c0.2,0.1,1.2,0.8,3.1,0c1.6-0.6,3-1.1,5.3-0.3c0.5,0.2,2.2,1,3.7,0.3c1.4-0.6,4.1-0.8,5.5-0.1
			c0,0-3.7,6.1-11.5,10.8c-0.1,0-7-4.1-10.9-9.9C38.8,59.8,38.4,59.1,38.4,59.1"/>
		<path class="st5" d="M66.8,34.9c0,1.3,0,2.7,0,4.6c0,19.1-11.1,26.8-16.9,30.4C44.2,66.3,33,58.6,33,39.5c0-1.8,0-3.5,0-4.7"/>
		<path class="st1" d="M66.4,33.5v-0.2c0,0,0-0.1,0-0.4h0.7c0,0.2,0,0.3,0,0.4c0,0-0.2,0.1-0.2,0.1C66.8,33.3,66.4,33.5,66.4,33.5"
			/>
		<path class="st5" d="M33,32.1c0-1.5,0-3.3,0-4.3c0-0.4,0-0.4,0-0.4h33.8c0,0,0,0,0,0.4c0,1,0,2.6,0,4.1"/>
		<path class="st1" d="M32.8,33.2c-0.1-0.1-0.1-0.2-0.1-0.2c0,0,0,0,0-0.2h0.7c0,0.2,0,0.3,0,0.3l0,0.3c0,0.1-0.2-0.2-0.3-0.2
			L32.8,33.2"/>
		<path class="st6" d="M61.6,59.1c-1-0.4-2.9-0.8-6,0.3c-1.9,0.6-3.3-0.9-5.6-0.9c-2.3,0-3.6,1.5-5.5,0.9c-3.2-1.1-5.1-0.7-6-0.2
			 M63,56.6C62.1,56,60,55,56.1,56.3C54,57,52.6,55.4,50,55.4c-2.5,0-4,1.6-6.1,0.9c-3.9-1.3-6-0.3-7,0.3"/>
		<path class="st1" d="M33.9,22.3c-0.1,0-0.5,0.3-0.5,0.3c0,0,0.3-0.3,0.2-0.2c0.2-0.2,0.2-0.2,0.5-0.3c0.4-0.2,0.7-0.3,1-0.4
			C34.6,21.9,34.3,22.1,33.9,22.3z M31.6,23.7c-0.3,0.2-0.5,0.4-0.7,0.6c-0.2,0.2-0.4,0.4-0.6,0.6c-0.3,0.5-0.5,1.2-0.5,1.8
			c0.1,1.5,0.7,2.9,1.3,4.1c0.1,0.2,0.3,0.5,0.2,0.5c-0.1,0.1-0.2,0-0.2-0.1c-0.4-0.5-0.8-1.2-1-1.8c-0.3-0.7-0.6-1.6-0.8-2.4
			c-0.2-1,0.1-1.8,0.6-2.4c0.4-0.4,1-0.9,1.6-1.2c0.6-0.4,1.1-0.7,1.7-0.9c0.1,0,0.3-0.1,0.3-0.1c-0.1,0.1-0.5,0.4-0.6,0.5
			C32.4,23.1,32,23.4,31.6,23.7z M31.9,31.4c0,0-0.2,0.6-0.4,0.6l0,0l0,0c0.3-0.1,0.4-0.1,0.7-0.2c0.1,0,0.4-0.2,0.4-0.1
			c0.1,0.1-0.2,0.3-0.3,0.4c-0.2,0.1-0.3,0.2-0.4,0.3l0,0l0,0c0.4,0,1.1-0.3,1.4-0.2c0,0,0.3,0.3,0.3,0.3c0,0.1-0.6,0.1-0.6,0.1
			c-0.5,0.1-0.7,0.2-1.1,0.4l0,0l0,0c0.5,0.1,1.1,0.3,1.4,0.6c0,0.1,0.2,0.4,0.1,0.3c-0.3-0.2-0.8-0.4-1.1-0.4c0,0-0.7-0.1-0.7-0.1
			c0,0.1,0.1,0.1,0.1,0.1c0.3,0.1,0.5,0.2,0.7,0.4c0,0,0.3,0.3,0.3,0.3c0,0.1-0.2,0.2-0.2,0.2c-0.3,0-0.5-0.4-0.7-0.5
			c-0.4-0.2-1.1-0.3-1.7-0.3c-0.9,0-1.9,0.1-2.7,0c-0.7,0-1.5-0.1-2.2-0.2c-0.8-0.1-1.6-0.2-2.3-0.2c-0.4,0-0.7,0.1-0.9,0
			c-0.7-0.3-0.6-1.2-0.7-2c-0.1-0.9-0.2-1.7-0.3-2.6c0.2,0.3,0.2,0.6,0.3,0.9c0.1,0.3,0.3,0.4,0.4,0.7c0.1,0.3,0.1,0.6,0,1
			c0,0.8,0.1,1.5,0.8,1.6c0.1,0,0.1,0,0.2,0c0.1,0,0.1,0.1,0.2,0.1c0.3,0,0.6,0,0.9,0c0.3,0,0.6,0.1,1,0.1c0.2,0,0.5,0.1,0.8,0.1
			c1.1,0.2,2.4,0.3,3.5,0.3l0,0l0,0c-0.4-0.1-0.9-0.2-1.3-0.4c-0.3-0.1-0.8-0.1-1.1-0.2c-0.3-0.1-0.5-0.2-0.7-0.2
			c-0.1,0-0.1,0-0.2-0.1c-0.6-0.1-1.3-0.1-1.9-0.3c-0.4-0.1-0.7-0.4-1-0.5c0,0-0.1,0-0.1,0c-0.1-0.1-0.4-0.5-0.5-0.7
			c-0.1-0.2,0-0.7,0.1-0.9c0.1-0.1,0.4-0.2,0.5-0.2c0.4-0.2,0.7-0.6,0.7-1.1c0-0.1-0.1-0.4,0-0.5c0.1-0.1,0.4,0.1,0.5,0.2
			c0.1,0.2,0.1,0.5,0.2,0.6l0,0l0,0c0-0.2-0.1-0.5-0.1-0.7c0-0.2,0-0.5-0.1-0.6c0-0.1-0.1-0.2-0.2-0.3c-0.1-0.1-0.2-0.1-0.2-0.2
			c-0.1-0.2,0-0.4,0-0.6c0-0.1-0.1-0.3-0.1-0.4c-0.1-0.1-0.2-0.1-0.3-0.2c0-0.1,0-0.2,0-0.3c0-0.2-0.1-0.5-0.2-0.6
			c0-0.2,0.1,0,0.2,0c0.3,0.2,0.4,0.5,0.6,1c0.1,0.2,0.2,0.5,0.3,0.7c0,0.1,0.2,0.3,0.2,0c0-0.2-0.1-0.4-0.1-0.5
			c0-0.3,0.2-0.7,0.1-1.1c0-0.4-0.3-0.5-0.2-0.9c0-0.2,0.2-0.3,0.2-0.6c0-0.3-0.2-0.6-0.3-0.9c0-0.1,0-0.2,0-0.3
			c-0.1-0.4-0.1-1.1,0-1.5c0.1-0.3,0.1,0.2,0.1,0.3c0.1,0.8,0.5,1.9,1.1,2.4c0.4,0.4,0.9,0.8,1.2,1.3c0.7,0.9,1.1,2.1,1.5,3.2
			c0.1,0.4,0.3,1.1,0.3,1.6c0,0.6-0.2,1.2-0.4,1.7c0,0-0.1,0.4-0.1,0.4c0,0-0.3-0.3-0.3-0.3c-0.1-0.1,0-0.4,0-0.6c0-0.8,0-1.3-0.1-2
			c-0.2-0.8-0.6-1.6-0.9-2.2c-0.1-0.1-0.2-0.4-0.3-0.4c-0.1,0,0.1,0.3,0.1,0.3c0.6,1,1,2.3,0.9,3.8c0,0.1,0,0.4-0.1,0.5
			c-0.1,0.1-0.4-0.1-0.4-0.2c-0.2-0.2-0.4-0.6-0.7-0.8l0,0l0,0c-0.1,0.3,0.1,1.2-0.2,1.3c-0.1,0-0.3-0.1-0.4-0.1
			c-0.1,0-0.3-0.1-0.4-0.1c-0.3-0.1-0.2-0.1-0.4-0.4c0-0.1-0.1-0.1-0.2-0.1c0,0,0-0.1,0-0.2c-0.1-0.2-0.3-0.4-0.4-0.5
			c0-0.1,0-0.2,0-0.3c0-0.1-0.2-0.5-0.2-0.5c-0.1,0-0.1,0.4-0.2,0.5c-0.1,0.3-0.1,0.6-0.1,1c0,0.1,0,0.4,0.1,0.5
			c0.1,0.1,0.3,0.1,0.5,0.1c0.3,0,0.7,0.2,1,0.3c0.8,0.2,1.6,0.5,2.4,0.6c0.4,0.1,0.8,0.2,1.2,0.2c0.5,0,1.2,0.1,1.6,0
			c0.2-0.1,0.4-0.2,0.7-0.4C31.3,31.7,31.7,31.3,31.9,31.4z M27.6,34.7c-0.1,0.6-0.2,1.4-0.2,2.1c-0.1,1.6-0.1,3.3-0.3,4.9
			c-0.2,1.4-0.3,2.7-0.5,4l0,0l0,0c0.3-0.9,0.4-1.9,0.6-2.9c0-0.1,0-0.4,0.1-0.4c0,0,0.1,0.2,0.1,0.2c0.3,0.6,0.4,1.3,0.6,2
			c0.2,1,0.2,2.1,0.2,3.2c0,0.8-0.1,1.5-0.3,2.2c-0.1,0.4-0.4,0.8-0.5,1.2c-0.1,0.6-0.5,1.1-0.7,1.8c-0.1,0.6-0.2,1.4-0.3,2l0,0l0,0
			c0,0,0,0,0,0l0,0l0,0c-0.3,2.2-0.6,4.3-0.8,6.5c-0.1,0.5-0.1,1.1-0.1,1.6c0,0.6,0.3,0.9,0.7,1.1c1.9,1,4.9,0.9,7.3,1.4
			c-0.4,0-0.9,0.1-1.4,0.1l0,0l0,0c0.5,0.1,1.2,0,1.7,0.2c-0.5,0-1,0.1-1.5,0.2l0,0l0,0c0.1,0,0.5,0.2,0.4,0.3c0,0-0.3,0.1-0.3,0.1
			c-0.6,0.1-1.4,0-2-0.1c-1.2-0.1-2.6-0.3-3.9-0.1c-0.7,0.1-1.4,0-2,0c-0.1,0-0.2,0-0.3,0c0,0-0.2,0.1-0.3,0
			c-0.1-0.1-0.3-0.6-0.2-0.7c0,0,0.2-0.1,0.2-0.1c0,0,0,0.2,0.1,0.3c0.1,0.1,0.2,0.2,0.4,0.2c0.3,0,0.6-0.2,1-0.2
			c1.1-0.1,2.4,0.3,3.4,0.2v0l0,0c-1-0.2-2.1-0.3-3.3-0.4c-0.2,0-0.8,0-0.9-0.1c-0.1-0.1,0.1-0.4,0.1-0.6c0,0,0-0.1,0-0.1
			c0-0.1,0-0.1,0-0.1c-0.1-0.3-0.1-0.9-0.1-1.3c0.1-2,0.1-4,0.3-6c0.1-0.8,0.2-1.5,0.2-2.3c0-0.5,0.2-0.8,0.3-1.2
			c0.1-0.2,0.1-0.4,0.2-0.6c0.3-1.2,0.6-2.5,0.7-3.9c0.1-1.2,0.1-2.9-0.3-3.9c0-0.1-0.1-0.1-0.1-0.2c-0.3-0.8-0.7-1.4-1.1-2
			c-0.2-0.2-0.3-0.5-0.4-0.7c-0.2-0.3-0.4-0.5-0.6-0.8c-0.2-0.3-0.4-0.6-0.7-0.8c-0.3-0.2-0.8-0.3-1.2-0.3c-0.4,0-0.9-0.3-1.3-0.3
			c-0.1,0-0.3,0-0.5,0c-0.1,0-0.6,0.1-0.4,0c0.7-0.3,1.5-0.3,2.3-0.1c0.3,0.1,0.6,0.1,0.8,0.2c0.7,0.2,1,0.6,1.4,1.1
			c0.1,0.1,0.3,0.4,0.3,0.4c0.1,0,0.2-0.4,0.2-0.5c0-0.8-0.9-1.3-1.1-1.9c-0.1-0.3,0.1-0.3,0.4-0.2c0.4,0.2,1.3,0.3,1.2-0.3
			c0-0.1-0.1-0.3-0.1-0.4c0-0.1,0.1-0.3,0.2-0.4c0.1,0,0.2,0,0.3-0.1c1-0.5,0.7-2.1,0.9-3.3c0.1-0.4,0.1-0.6,0.2-0.9
			c0-0.1,0.4,0,0.5,0c0.1,0,0.4,0,0.5,0C27.7,34,27.6,34.6,27.6,34.7z M25,67.5c0.5,0.1,1.1,0.2,1.7,0.2c1.7,0.2,3.4,0.2,5,0.3
			c0.1,0,0.6,0.1,0.4,0.1c-0.2,0-0.4,0.1-0.6,0.2c-0.1,0-0.4,0-0.4,0.1c0,0.1,0.6,0.2,0.7,0.2c0.1,0.1,0,0.1,0.2,0.1
			c-0.2,0-0.1,0.1-0.2,0.1c-0.3,0.1-0.7,0-1.1,0.1c-0.1,0-0.3,0-0.3,0.1c0,0,0.3,0.1,0.3,0.1c0.3,0,0.4,0,0.8,0c0.2,0,0.7,0.2,1,0.2
			c0.3,0.1-0.1,0.1-0.3,0.1c-0.4,0-0.9,0-1.3,0c-0.6,0-1.1-0.1-1.7-0.2c-0.5,0-0.9,0-1.4,0c-0.6-0.1-1.3-0.2-1.9-0.2
			c-0.6-0.1-1.3-0.2-1.9-0.2c-0.1,0-0.9,0-1,0c0,0.1,0.4,0.2,0.5,0.2c-0.4,0.1-0.9,0.2-1.3,0.2C22,69,21,69.1,20.7,69
			c-0.1-0.1-0.1-0.3-0.2-0.4c-0.1-0.2-0.2-0.3-0.2-0.4c-0.1-0.5,0.1-1.1,0.2-1.6c0.2-0.9,0.3-1.9,0.4-2.8c0-0.2,0.1-0.5,0.1-0.5
			c0,0,0.2,0,0.2,0c0.3,0.1,0.3,0.3,0.2,0.7c0,0.2,0,0.3-0.1,0.5c-0.1,0.6-0.3,1.7-0.4,2.3c0,0-0.1,0.2-0.1,0.3
			c0.1,0.1,0.2-0.2,0.2-0.2c0.5-2,0.9-4,1.1-6c0.1,0.4-0.1,1-0.1,1.5c0,0.9-0.1,1.8-0.2,2.5c-0.2,1.1-0.7,2-0.7,3.2
			c0,0.2,0.1,0.5,0.2,0.6c0.1,0.2,0.5,0.1,0.8,0.1c0.2,0,0.7,0.1,0.8-0.1c0-0.1-0.3-0.1-0.3-0.1c-0.2,0-0.4-0.2-0.5-0.2
			c-0.5-0.3-0.4-1.2-0.3-1.9c0.2-0.9,0.3-2,0.4-2.8c0.1-0.9,0.2-1.6,0.3-2.5c0.1-1.1,0.1-2.2,0.2-3.3c0-0.7,0.1-1.4,0.2-2.1
			c0.1-0.8,0.3-1.2,0.5-1.8c0-0.1,0-0.2,0.1-0.4c0,0,0.2-0.3,0.2-0.3c0,0-0.1,0.3-0.1,0.4c-0.3,1-0.4,2.3-0.4,3.5
			c0,0.3-0.1,0.6-0.1,1c0,1.5-0.1,3.2-0.2,4.5c-0.1,0.5-0.2,1.2-0.2,1.9c0,0.1-0.1,0.3,0,0.2c0.2-0.1,0.1-0.6,0.2-0.9
			c0.1-0.2,0.2-0.3,0.2-0.6c0-0.4,0.1-0.9,0.1-1.2c0-0.6,0.1-1.2,0.2-1.8c0-0.4,0.1-0.8,0.1-1.2c0-0.2,0.2-0.2,0.2-0.4
			c0.1-0.3,0.1-0.8,0.1-1.1c0-0.8,0.2-1.6,0.3-2.3c0.1-0.8,0.2-1.3,0.4-2c0.1-0.2,0.2-0.5,0.3-0.7c0-0.1,0.2-0.4,0.2-0.5
			c0,0,0-0.2-0.1-0.2c0,0-0.2,0.3-0.2,0.4c-0.2,0.3-0.3,0.5-0.5,0.8c0,0-0.3,0.4-0.3,0.4c0,0,0.2-0.5,0.2-0.5
			c0.2-0.6,0.4-1.1,0.6-1.5c0.3-0.6,0.3-1.2,0.5-1.9c0.1-0.3,0.2-0.8,0.2-1.3c0-0.4,0.1-0.9,0.1-1.3c0-0.1-0.1-0.3-0.1-0.3
			c0,0,0,0.4,0,0.4c-0.1,0.9-0.3,1.8-0.5,2.5c0,0.1-0.2,0.5-0.1,0.3c0-0.4,0.1-0.6,0.1-1c0.1-0.8,0.2-1.4,0.2-2.2
			c0-0.3,0-0.6-0.1-0.9c-0.1-0.4-0.4-0.8-0.6-1.1c-0.2-0.4-0.2-0.9-0.4-1.3c-0.1-0.4-0.4-0.7-0.7-1c-0.1-0.2-0.3-0.4-0.4-0.5
			c-0.3-0.3-0.7-0.4-1.1-0.5c-0.3-0.1-0.5-0.3-0.9-0.4c-0.2-0.1-0.7-0.2-0.9-0.2c-0.3,0,0.1,0,0.1-0.1c0.6-0.1,1.1,0.2,1.5,0.3
			c0.4,0,0.6,0.1,0.8,0.2c0.3,0.1,0.6,0.2,0.8,0.3c0.7,0.7,1,1.7,1.6,2.6c0.6,0.9,1.1,1.8,1.1,3c0,0.7,0.1,1.2,0,1.7
			c0,0.2-0.1,0.4-0.1,0.6c0,0.3,0,0.7,0,1.1c-0.1,0.9-0.3,1.9-0.6,2.7c-0.2,0.6-0.4,1.1-0.5,1.8c-0.1,0.6-0.2,1.2-0.3,1.9
			c-0.1,1-0.3,1.9-0.4,2.8c-0.2,2.2-0.7,4-0.8,6.1c0,0.1,0,0.2,0,0.3c-0.1,0.1-0.2,0.1-0.3,0.1c0,0,0,0.1,0,0.2
			c-0.1,0.3-0.2,0.8-0.2,1.2c0,0.2,0.2,0.2,0.4,0.3c0.3,0.1,0.7,0,1.1,0l0,0l0,0c-0.3-0.1-0.6-0.3-0.8-0.5c-0.1-0.1-0.3-0.6-0.3-0.7
			c0.1-0.2,0.3,0.2,0.3,0.2C23.9,67.1,24.4,67.3,25,67.5z M20.2,65.8c0,0.2-0.1,0.4-0.1,0.5c-0.1,0.1-0.2,0-0.2,0
			c-0.5-0.1-1.3,0.1-1.9,0.1c-0.1,0-0.2,0-0.3,0c-0.1,0-0.3,0.1-0.3,0c0.7-1.6,1.2-3.6,1.3-5.5c0.1-1.1,0.1-2.1,0.3-3.1
			c0.2-1.2,0.4-2.2,1-3c0,0,0,0,0,0c0.1,0,0.1,0.1,0.2,0.2c0.1,0,0.2,0.1,0.2,0.1c0.1,0.1,0.1,0.4,0.2,0.5c0.2,0.3,0.4,0.4,0.5,0.8
			c0.1,0.8,0,1.9-0.1,2.9c-0.1,1.2-0.2,2.3-0.3,3.3c-0.1,0.6-0.2,1.2-0.3,1.9C20.4,64.9,20.3,65.3,20.2,65.8z M19.7,67.8
			c0,0,0.1,0.2,0,0.2c0,0-0.4,0-0.4,0c-0.9,0-1.5,0.1-2.3,0.2c-0.2,0-0.8,0.2-0.9,0.1c0,0,0.3-0.4,0.4-0.4c0.1-0.1,0.3-0.4,0.4-0.5
			c0.1,0,0.5,0,0.6,0c0.6-0.1,1.3-0.1,1.8-0.1c0,0,0.5,0,0.6,0C19.9,67.3,19.8,67.7,19.7,67.8z M15.8,68c-0.4,0.3-0.7,0.6-1.1,0.8
			c-1.4,0.6-3,0.6-4.9,0.7c1.4-0.2,2.7-0.5,3.8-1c0.3-0.1,0.7-0.3,1-0.6c0,0,0.1-0.1,0.2-0.2c0.1-0.1,0.1-0.1,0.2-0.2
			c0.6-0.6,1.1-1.4,1.5-2.2c0.1-0.3,0.2-0.6,0.3-0.9c0.1-0.4,0.2-0.8,0.3-1.3c0.2-0.8,0.3-1.5,0.5-2.4c0.2-1.5,0.2-3.4,0.4-4.9
			c0-0.1,0-0.4,0-0.5c0-0.1,0.1-0.3,0.2-0.5c0.1-0.2,0.2-0.7,0.2-0.2c0,1-0.2,2-0.3,3c0,0.4-0.1,0.9-0.1,1.3c0,0.3,0,0.5,0,0.7
			c0,0.6-0.1,1.2-0.2,1.9c0,0,0,0.2,0,0.1c0.1-0.1,0.1-0.3,0.1-0.3c0.1-0.3,0.1-0.6,0.1-1c0-0.5,0.1-1.1,0.1-1.5
			c0-0.2,0-0.4,0.1-0.6c0-0.1,0-0.2,0-0.3c0-0.3,0.1-0.6,0.1-0.9c0.2-0.9,0.4-1.7,0.6-2.5c0-0.1,0.2-0.5,0.3-0.7c0,0,0-0.1,0,0
			c-0.1,0.8-0.3,1.5-0.4,2.3c-0.4,3.1-0.5,6.6-1.5,9.3C17,66.6,16.5,67.4,15.8,68z M12.3,68c1.4-0.5,2.5-1.1,3.3-2.2
			c0,0,0.1-0.1,0.1,0c0,0.2,0,0.3-0.4,0.9c-0.6,0.9-1.5,1.3-2.6,1.7c-0.2,0.1-0.6,0.1-0.8,0.2c-0.7,0.2-1.3,0.2-2.1,0.2
			C10.4,68.3,11.3,68.4,12.3,68z M8.9,68.9C8.4,69,6.4,69,5.8,69c0.4,0,2-0.2,2.4-0.3c0.4,0,0.7-0.1,1-0.1C9.5,68.6,9,68.8,8.9,68.9
			z M18,52.9c0-0.2,0.1-0.6,0.1-0.8c0,0,0,0,0,0c0,0,0,0,0,0c0.1,0.2,0.1,0.6,0.1,0.9c0,0.4,0.2,0.8,0.1,1c0,0.1-0.1,0.3-0.2,0.5
			C18,54.7,18,54.3,18,54.2C18,53.9,18,53.3,18,52.9z M21.3,53.8c-0.1,0.2-0.5,0.4-0.8,0.4c-0.1,0-0.2-0.3-0.3-0.4
			c-0.3-0.4-0.6-0.7-0.9-1l0,0l0,0c0,0,0,0,0,0l0,0l0,0c0.3,0.1,0.5-0.2,0.8-0.1c0.1,0.1,0.2,0.3,0.3,0.4c0.1,0,0.2,0.1,0.3,0.2
			c0.1,0,0.4,0,0.4,0C21.4,53.3,21.4,53.7,21.3,53.8z M21.6,59.8c-0.1-0.1-0.1-0.5-0.1-0.7c0-0.9,0.2-1.8,0.1-2.7
			c0-0.2,0-0.5-0.1-0.6c0-0.1-0.1-0.1-0.1-0.2c-0.1-0.2-0.4-0.7-0.6-0.9c-0.1-0.1,0.2-0.1,0.3-0.1c0.2,0,0.2-0.1,0.3-0.1
			c0.5-0.1,0.8,0.3,0.8,0.8c0.1,0.6-0.1,1.3-0.3,1.9c-0.1,0.3-0.1,0.6-0.1,1c0,0.3-0.1,0.7-0.1,0.9c0,0.2,0,0.6-0.1,0.7
			C21.7,59.7,21.6,59.8,21.6,59.8z M18,51.2c0.1,0,0.4,0,0.5,0.1c0,0,0,0.1,0,0.1c0,0,0.1,0,0.1,0c0.1,0.1,0.1,0.2,0.2,0.2
			c0.2,0.1,0.5,0.1,0.7,0.3c0,0,0.1,0.2,0.1,0.2c0,0-0.6,0.1-0.6,0.1c0,0-0.4-0.3-0.4-0.4c-0.2-0.2-0.4-0.4-0.6-0.6
			C18,51.3,17.9,51.3,18,51.2z M20.3,16.8c0,0.1-0.3-0.5-0.3-0.7c0-0.3,0.2,0,0.3-0.2c0-0.1-0.1-0.1,0-0.2c0.1,0,0.2-0.2,0.3-0.2
			c0.1,0,0.2,0.2,0.1,0.4C20.6,16.1,20.3,16.6,20.3,16.8z M20.1,17.3c0,0,0-0.2,0-0.1c0-0.1-0.1-0.2-0.1-0.3c0,0,0.2,0.2,0.2,0.3
			C20.2,17.3,20.1,17.6,20.1,17.3z M19.3,13.8c-0.2-1,0-1.9,0.3-2.5c0.1-0.1,0.1,0,0.1,0c0,0.1,0.1,0.2,0.2,0.2
			c0.3,0.3,0.6,0.6,0.8,0.9c0.3,0.4,0.3,1,0.4,1.5c0,0.1,0.1,0.4,0.1,0.5c0,0.1-0.1,0-0.1,0c-0.2,0.1-0.1,0.5-0.1,0.7
			c-0.1-0.1-0.2-0.6-0.2-0.8c0-0.6,0.1-1.3-0.2-1.9c-0.1-0.1-0.3-0.4-0.4-0.5c0,0-0.3-0.3-0.3-0.2c-0.1,0,0.1,0.3,0.1,0.4
			c0.1,0.2,0.1,0.4,0.2,0.5c0,0.1,0.1,0.2,0.1,0.3c0,0.2-0.1,0.9-0.1,0.9c0,0-0.1-0.1-0.1-0.2c-0.2-0.3-0.3-0.5-0.4-0.7l0,0l0,0
			c0.1,0.8,0.1,1.5,0.6,1.9c0.1,0.1,0.3,0.2,0.3,0.2c0,0.1-0.2,0.2-0.2,0.2c0,0-0.1-0.2-0.1-0.2C19.7,14.8,19.4,14.3,19.3,13.8z
			 M22.5,18.1c-0.3,0-0.7-0.1-1-0.2c-0.2-0.1-0.4-0.3-0.5-0.3c-0.1-0.1-0.1-0.4-0.2-0.5c0,0,0-0.1,0-0.1c0,0,0,0,0,0c0,0,0,0,0,0.1
			c0.1,0.1,0.2,0.2,0.3,0.2C21.6,17.6,22,18,22.5,18.1z M21.8,15.7c0.1-0.1,0.2-0.1,0.3-0.2c0.1,0,0.3,0,0.4,0c0,0,0.3,0.1,0.3,0.2
			c0.2,0.2-0.1,0-0.2,0c-0.3,0-0.6,0.1-0.8,0.2c0,0-0.2,0.1-0.2,0.1c0.1,0-0.1-0.1-0.1-0.1C21.6,15.9,21.8,15.8,21.8,15.7z M22,14.5
			c0.2,0,0.5-0.1,0.8-0.1c0.4,0,0.7,0.2,0.9,0.4c0,0,0.2,0.3,0.2,0.3c0,0-0.3-0.1-0.2-0.1c-0.5-0.2-1.1-0.4-1.8-0.4
			c0,0-0.3,0.1-0.2,0C21.6,14.6,21.9,14.6,22,14.5z M23,13.7c0-0.1,0-0.4,0.1-0.5c0.1-0.2,0.2-0.4,0.2-0.6c0.1-0.2,0.1-0.5,0.2-0.7
			c0.1-0.3,0.3-0.5,0.3-0.8c0,0,0,0,0,0c0,0,0.2,0.2,0.2,0.2c0.1,0.1,0,0.3,0.1,0.4c0,0.3-0.1,0.8-0.3,1.2c-0.2,0.3-0.2,0.5-0.3,0.8
			c-0.1,0.2-0.3,0.6-0.5,0.4C22.8,14,22.9,13.8,23,13.7z M21.9,16.4C21.9,16.4,21.9,16.4,21.9,16.4c0.1,0.1,0.1,0.3,0.3,0.3
			c0.3,0.1,0.5-0.1,0.4-0.4c0-0.1,0,0,0.1,0c0.2,0,0.2,0.4,0.1,0.5c-0.2,0.2-0.5,0.2-0.7,0C21.9,16.7,21.7,16.4,21.9,16.4z
			 M22.4,16.5c0,0.1-0.1,0.1-0.1,0.1c-0.1,0-0.1,0-0.1-0.1c0-0.1,0.1-0.1,0.1-0.1C22.3,16.4,22.4,16.4,22.4,16.5z M21.9,16.2
			c0,0,0.1-0.2,0.2-0.2c0.2-0.1,0.3-0.1,0.4-0.1c0.1,0,0.3,0,0.4,0.1c0.1,0.2-0.2,0-0.3,0C22.5,16.1,21.9,16.3,21.9,16.2z
			 M24.4,16.6c0.2,0.1,0.4,0.4,0.7,0.6c0.2,0.2,0.5,0.4,0.6,0.5c0.1,0.1,0,0.1,0.1,0.1c0,0,0.1,0.1,0.1,0.1c0.2,0.1,0.4,0.1,0.5,0.2
			c0,0,0.1,0.3,0,0.3c0,0-0.4-0.2-0.4-0.2c0,0-0.1,0-0.1,0c-0.2,0-0.2-0.2-0.3-0.2c-0.1,0-0.3,0-0.3,0.1c-0.2,0.1,0,0.5,0.1,0.5
			c0.3,0.2,0.5,0,0.6,0.4c0,0.1,0.1,0.3,0.1,0.4c0.1,0.1-0.5,0.4-0.6,0.5c-0.2,0.1-0.5,0.1-0.8,0c-0.2-0.1-0.4-0.3-0.7-0.2
			c-0.1,0-0.1,0.2-0.2,0.3c-0.1,0.1-0.6,0-0.7-0.1c-0.4,0-0.8,0-1.2-0.1c-0.4-0.1-0.8-0.4-1-0.6c-0.2-0.2-0.3-0.5-0.3-0.7
			c0-0.2-0.1-0.6-0.1-0.8c0-0.1,0.2,0.3,0.3,0.4c0.1,0.2,0.2,0.3,0.3,0.4c0.3,0.3,0.6,0.6,1,0.9c0.4,0.3,1.3,0.3,1.8,0.2
			c0.1,0,0.2,0,0.1-0.1c-0.1-0.1-0.5-0.3-0.6-0.5c0-0.1,0.2,0,0.4,0c0.3,0.1,0.7,0.5,1,0.6c0,0,0.5,0.1,0.5,0c0-0.1-0.2-0.1-0.2-0.1
			c-0.1,0-0.3-0.2-0.3-0.2c-0.1-0.1-0.4-0.4-0.1-0.3c0.2,0.1,0.2-0.1,0.3-0.1c0.1,0,0.3,0.2,0.3,0c0-0.1-0.1-0.1-0.2-0.1
			c-0.1-0.1-0.3-0.3-0.4-0.4c-0.1-0.1-0.2-0.3-0.1-0.4c0-0.1,0.2,0,0.3-0.1c0.1-0.1,0-0.3,0-0.4c-0.1-0.5-1-0.8-1.2-1.1
			c0,0-0.2-0.3-0.1-0.3c0,0,0,0,0,0C24,16.1,24.2,16.4,24.4,16.6z M24.4,15.5c0.3-0.1,0.8,0.4,0.4,0.4l0,0l0,0
			c0,0.1,0.1,0.2,0.1,0.3c0,0.1-0.1,0.1-0.1,0.2c0,0.1,0.3,0.2,0.4,0.3c0.2,0.2,0.4,0.5,0.6,0.7c0,0,0.2,0.3,0.1,0.2
			c-0.2-0.1-0.3-0.3-0.5-0.4c-0.2-0.2-0.4-0.5-0.6-0.7c-0.1-0.2-0.3-0.3-0.3-0.4C24.4,16,24.3,15.6,24.4,15.5z M26.8,18.8
			C26.8,18.8,26.9,18.9,26.8,18.8c0.1,0.4-0.2,1-0.5,1.1c-0.3,0.1-0.1-0.1,0-0.1c0.2-0.2,0.4-0.4,0.4-0.7
			C26.8,19,26.8,18.9,26.8,18.8z M28.6,31.7c0.4-0.2,0.7-0.4,1.1-0.7c0,0,0,0,0,0c0.1,0,0.5,0.7,0.6,0.9c0,0.1-0.1,0.1-0.3,0.1
			c-0.5,0-1.2,0-1.7-0.1C28.3,31.9,28.6,31.7,28.6,31.7z M28.6,31.1c0.1-0.5,0.3-1,0.2-1.7c0,0,0-0.1,0-0.1c0-0.1,0.1,0.2,0.1,0.1
			c0.1,0.2,0.2,0.4,0.4,0.6c0.1,0.1,0.3,0.5,0.3,0.6c0,0.1-0.4,0.3-0.5,0.4c-0.1,0.1-0.3,0.2-0.4,0.3C28.5,31.5,28.6,31.2,28.6,31.1
			z M33.9,26c0,0,0.1-0.1,0.1-0.1c0,0,0.1,0,0.2,0c0,0,0.3,0.4,0.3,0.4c0,0-0.2-0.1-0.1-0.1c-0.1,0-0.3,0-0.3,0c0,0-0.2,0.2-0.2,0.2
			C33.7,26.5,33.9,26.1,33.9,26z M34.8,25.9c0-0.1,0.2-0.2,0.3-0.2c0.2,0,0.3,0.1,0.4,0.3c0.1,0.1,0.1,0.5,0,0.3
			C35.4,26.1,35.2,26,35,26c0,0-0.2,0.1-0.2,0.1C34.7,26.2,34.8,26,34.8,25.9z M35.8,26.3c0-0.1,0.1-0.1,0.1-0.1c0,0,0.1,0,0.1,0
			c0.1,0,0.3,0.5,0.1,0.4C36,26.5,35.8,26.5,35.8,26.3z M37.5,20.1c-0.4-0.3-1.1,0-1.5,0.1c-2.7,0.8-5.3,1.9-7.2,3.4
			c-0.5,0.4-0.9,1-1,1.6c0,0.1-0.1,0.5-0.1,0.5c-0.1-0.3-0.2-0.4-0.3-0.6c-0.2-0.2-0.3-0.4-0.4-0.6c-0.3-0.4-0.7-0.7-1-1
			c-0.3-0.3-0.4-0.8-0.6-1.2c-0.2-0.4-0.5-0.9-0.5-1.5c0-0.1-0.1-0.5,0-0.5c0.1-0.1,0.2,0.1,0.3,0.1c0.2,0,0.4,0,0.5-0.1
			c0.1,0,0.3-0.2,0.4-0.2c0.1,0,0.1,0.1,0.2,0.1c0.6,0,0.9-0.7,0.9-1.2c0-0.2-0.1-0.4-0.1-0.5c0-0.1,0-0.1,0-0.2
			c0-0.2-0.3-0.3-0.5-0.4c-0.4-0.2-0.7-0.9-1.1-1.2c-0.1-0.1-0.4-0.3-0.2-0.4c0.1-0.1,0.4-0.1,0.3-0.2c0-0.1-0.2,0-0.3,0
			c0,0,0-0.1,0-0.2c-0.1-0.2-0.3-0.5-0.5-0.6c-0.1,0-0.2,0-0.3,0c-0.1,0-0.3-0.3-0.3-0.3c0,0,0-0.8,0-0.9c0.1-0.6,0.5-1.4,0.4-2.2
			c0-0.4-0.3-1.1-0.6-1.2c-0.1,0-0.2,0-0.2,0c0,0,0,0,0,0c-0.1,0.2-0.2,0.5-0.3,0.7c-0.4,1-0.6,2-1.4,2.7c-0.1,0.1-0.4,0.3-0.4,0.2
			c0,0,0-0.1-0.1-0.2c-0.1-0.4-0.1-0.9-0.2-1.3c-0.2-0.6-0.9-1.2-1.2-1.6c-0.1-0.1-0.1-0.2-0.2-0.2c-0.2-0.1-0.5,0.2-0.5,0.3
			c-0.2,0.5-0.4,1.4-0.3,2.1c0.1,0.6,0.2,1.1,0.4,1.5c0.1,0.1,0.4,0.4,0.4,0.6c0,0.1-0.1,0.1-0.1,0.2c-0.1,0.7,0,1.5,0.1,2.3
			c0.1,0.4,0.1,0.8,0.2,1.2c0.1,0.4,0.2,0.7,0.3,1.1c0,0.2,0,0.4,0,0.6c0,0.6,0.2,1.2,0.2,1.8c0,0.5-0.1,1.1-0.1,1.7
			c-0.1,1.1-0.4,2.1-0.4,3.2c0,0.9,0.1,1.7,0.1,2.5c0,0.4,0.1,0.8,0.1,1.1c-0.1,0.6-0.3,1.2-0.5,1.8c-0.4,1.2-0.8,2.4-1.1,3.5
			c-0.2,0.6-0.4,1.1-0.7,1.7c-0.4,1-0.7,2.4-1.1,3.4c-0.4,1.1-0.8,2.2-1.1,3.4c-0.1,0.4-0.2,0.7-0.2,1.1c0,0.5-0.1,0.9-0.1,1.4
			c-0.1,0.9,0,1.8,0.1,2.9c0,0.5,0.2,1,0.2,1.6c0.1,1.6,0.2,3.2,0.2,4.4c0,0.4-0.1,0.9,0,1.4c0,0.1,0,0.3,0,0.4c0,0.1,0,0.2,0,0.3
			c0,0.2,0,0.4,0,0.6c-0.1,1.1,0.1,2.1-0.1,3.1c-0.1,0.5-0.1,1-0.2,1.5c-0.2,0.8-0.3,1.7-0.7,2.4c-1,1.7-3.4,2.1-5.5,2.5
			c-0.3,0.1-0.7,0.1-1.1,0.1c-1.1,0.1-2.2,0.1-3.4,0.2C3.9,68.6,3,68.8,2.1,69c-0.3,0-0.8,0.1-0.8,0.3c0,0.2,0.6,0.5,0.9,0.6
			c0.4,0.1,0.8,0.1,1.2,0.1C4.7,69.9,6,70,7.1,70c2.4,0,5.1,0,7.2-0.6c0.2-0.1,0.5-0.2,0.6-0.3c0.2,0,0.4,0,0.6,0
			c1.4-0.1,2.6-0.1,4-0.1c0.1,0,0.3,0,0.4,0c0.2,0,0.3,0.2,0.4,0.3c0.1,0,0.3,0.1,0.5,0.1c0.8,0.1,1.5,0.1,2.4,0
			c1.3-0.1,2.6,0.1,4,0.2c1.1,0.1,2,0.1,3.2,0.2c0.3,0,0.6,0.1,0.9,0.1c0.4,0,0.6-0.1,0.8-0.1c0.3,0,0.6,0,0.8,0
			c0.1,0,0.1-0.1,0.2-0.1c0.1,0,0.4,0,0.6,0.1c0.1,0,0.2,0.1,0.3,0.1c0.1-0.1-0.2-0.4-0.3-0.4c0,0-0.2-0.1-0.1-0.1
			c0.1,0,0.2-0.1,0.3-0.1c0.2-0.1,0.8,0.1,0.8,0.1c0,0-0.2-0.3-0.3-0.3c-0.2-0.1-0.6-0.1-0.7-0.2c-0.2-0.1,0-0.1,0.2-0.1
			c0.2,0,0.5,0.1,0.6,0c0-0.1-0.4-0.3-0.5-0.3c-0.1,0-0.1,0-0.1,0c0,0-0.1-0.1-0.2-0.1c-0.3-0.1-0.7-0.4-1.1-0.5
			c-0.4-0.1-0.9,0-1.3-0.1c-0.4-0.1-0.6-0.2-1-0.2c-0.5,0-1,0.1-1.5,0.1c-0.2,0-0.4,0-0.6-0.1c-0.5,0-1-0.1-1.5-0.1
			c-0.6-0.1-1.3-0.1-1.8-0.2c0,0-0.6-0.2-0.6-0.3c0-0.1,0.3-0.1,0.3-0.1c0.2,0,0.3,0,0.4,0c0.5,0,1-0.1,1.5-0.1c0.5,0,1,0,1.5,0
			c1.1,0,2.6,0.2,3.8,0.3c0.3,0,0.5,0.1,0.8,0c0.1,0,0.2-0.1,0.3-0.1c0.5-0.1,1.2,0.3,1.7,0.2c0.2,0,0.4-0.2,0.6-0.2
			c0.1,0,0.5,0.1,0.6,0.1c0.1-0.1-0.3-0.3-0.3-0.3c-0.3-0.1,0-0.1,0.2-0.1c0.1,0,0.1,0,0.2-0.1c0.2,0,0.8,0.1,0.8,0c0,0,0,0,0-0.1
			c-0.1-0.1-0.4-0.3-0.6-0.3c-0.1,0-0.2,0-0.2,0c0,0-0.1-0.2-0.1-0.2c0,0,0.2,0.1,0.3,0c0-0.1-0.1-0.2-0.2-0.2
			c-0.3-0.1-0.4-0.2-0.7-0.3c-0.3-0.1-0.7-0.3-0.9-0.3c-0.3,0-0.7,0.1-0.9,0.1c-0.2,0-0.6,0-0.8-0.1c-0.6-0.1-1.2-0.2-1.7-0.2
			c-1.5-0.1-3.1-0.4-4.4-0.9c-0.6-0.3-0.6-1.2-0.5-1.9c0.1-0.9,0.3-2.1,0.3-3c0-0.4,0-0.8,0.1-1c0.1-0.2,0.1-0.6,0.1-1
			c0-0.3,0.1-0.6,0.1-0.9c0.2-1.2,0.2-2.5,0.6-3.6c0.2-0.5,0.5-1,0.7-1.5c0-0.1,0.1-0.2,0.1-0.3c0-0.1,0.1-0.2,0.1-0.3
			c0.1-0.3,0.2-0.6,0.3-0.9c0.1-0.3,0.1-0.6,0.2-0.9c0.1-1.4,0.1-3-0.2-4.3c-0.2-0.7-0.4-1.5-0.7-2.1c-0.1-0.1-0.2-0.3-0.3-0.4
			c0-0.2,0.1-0.5,0.1-0.6c0.2-2.1,0.1-4.1,0.4-6.2c0-0.1,0.1-1,0.1-1c0,0,0.2,0,0.3,0c0.4,0,0.9,0,1.4,0c0.6-0.1,1.4,0,1.9,0.2
			c0.3,0.1,0.4,0.5,0.8,0.6c0.3,0.1,0.3,0.1,0.4,0.3c0.3,0.4,1.1,0.5,1.3-0.1c0.1-0.3-0.1-0.6-0.1-0.9c0-0.1,0-0.1,0-0.2
			c0-0.3-0.6-0.5-0.7-0.7c0,0-0.1-0.2-0.1-0.2c0,0,0.2,0,0.2,0c0.3,0,0.4,0.2,0.5,0.4c0,0.1,0,0.2,0.1,0.2c0,0,0.1-0.2,0.2-0.2
			c0.1-0.2,0-0.5,0-0.6c0-0.1,0.1-0.1,0.1-0.2c0-0.2-0.1-0.4-0.2-0.4c-0.1-0.1-0.3-0.1-0.4-0.2c-0.1-0.1-0.1-0.2-0.1-0.3
			c-0.1-0.1-0.3-0.2-0.4-0.2c0,0-0.2,0-0.3,0c0,0,0-0.1,0-0.1c-0.1-0.1-0.2-0.2-0.4-0.2c0,0-0.1,0-0.2,0c-0.1,0-0.2-0.3-0.3-0.5
			c-0.1-0.2-0.2-0.3-0.2-0.5c0-0.1-0.2-0.1-0.1-0.2c0,0,0.3-0.2,0.3-0.2c0.1-0.1,0.3-0.1,0.4-0.2c0.1,0,1-0.4,1-0.6
			c0-0.2-0.6,0.1-0.7,0.1c-0.3,0.1-0.5,0.2-0.8,0.4c0,0-0.3,0.2-0.4,0.2c0,0-0.1-0.2-0.1-0.3c0-0.1-0.1-0.2-0.1-0.3
			c0-0.1-0.2-0.5-0.2-0.6c0,0,0.2-0.1,0.2-0.1c0.4-0.1,0.8-0.3,1.1-0.4c0.1,0,0.3-0.4,0.3-0.4c0.1,0,0.1,0.2,0.1,0.2
			c0.3,0.3,0.7,0,0.9-0.2c0,0,0.3-0.3,0.3-0.3c0,0,0.2,0.2,0.2,0.2c0.1,0,0.2,0,0.2,0c0.1,0.1-0.1,0.3-0.1,0.4
			c0.1,0.1,0.5-0.3,0.5-0.4c0,0,0-0.2,0.1-0.2c0,0,0.3,0.3,0.3,0.3c0,0.1-0.2,0.3-0.1,0.3c0.1,0.1,0.3-0.1,0.3-0.2
			c0.1-0.1,0.2-0.3,0.3-0.3c0.1,0.1-0.1,0.3-0.1,0.3c0,0.1-0.2,0.2-0.1,0.3c0.1,0.1,0.6-0.2,0.7-0.3c0.4-0.2,0.9-0.5,0.9-1
			c0-0.2-0.1-0.4-0.2-0.4c-0.1,0-0.4,0-0.3,0c0,0,0-0.3,0-0.3c0-0.2-0.2-0.5-0.5-0.4c-0.1,0-0.1,0.1-0.2,0.1c-0.1,0-0.2-0.3-0.2-0.4
			c-0.3-0.2-0.6-0.2-0.9,0c-0.1,0-0.1,0.2-0.2,0.2c0,0-0.1-0.1-0.1-0.1c-0.3-0.2-0.7,0-0.8,0.4c0,0.1,0,0.3,0,0.4
			c0,0.1-0.2,0.1-0.3,0.1c-0.1,0.1-0.1,0.2-0.2,0.3c-0.1,0.1-0.2,0.1-0.3,0.2c-0.1,0.1-0.1,0.2-0.2,0.3c-0.1,0.1-0.2,0.3-0.3,0.4
			c-0.1,0.1-0.4,0.2-0.6,0.3c-0.1,0-0.6,0.3-0.7,0.2c0,0-0.1-0.2-0.1-0.3c-0.1-0.3-0.2-0.7-0.3-0.9c-0.2-1,0.3-1.8,0.8-2.2
			c1.3-1,2.7-1.9,4.3-2.7c0.5-0.3,1.1-0.5,1.5-0.8C37.3,21.2,38,20.5,37.5,20.1L37.5,20.1z M91.1,68.9c-0.1,0-0.5-0.2-0.3-0.2
			c0.2,0,0.6,0.1,1,0.1c0.4,0,2.1,0.2,2.4,0.3C93.6,69,91.6,69,91.1,68.9z M88.2,68.6c-0.2-0.1-0.6-0.1-0.8-0.2
			c-1.1-0.4-2-0.8-2.6-1.7c-0.4-0.6-0.4-0.7-0.4-0.9c0,0,0.1,0,0.1,0c0.8,1.1,1.9,1.7,3.3,2.2c1,0.3,1.9,0.3,2.6,0.7
			C89.5,68.7,89,68.8,88.2,68.6z M85.4,68.8c-0.5-0.2-0.8-0.5-1.1-0.8c-0.7-0.6-1.2-1.4-1.6-2.4c-1-2.7-1.1-6.2-1.5-9.3
			c-0.1-0.7-0.3-1.5-0.4-2.3c0,0,0,0,0,0c0.1,0.2,0.3,0.5,0.3,0.7c0.2,0.7,0.4,1.6,0.6,2.5c0.1,0.3,0.1,0.6,0.1,0.9
			c0,0.1,0,0.2,0,0.3c0,0.2,0,0.4,0.1,0.6c0.1,0.4,0.1,1,0.1,1.5c0,0.4,0.1,0.6,0.1,1c0,0,0,0.2,0.1,0.3c0,0.1,0-0.1,0-0.1
			c-0.1-0.7-0.1-1.3-0.2-1.9c0-0.2,0-0.5,0-0.7c0-0.4-0.1-0.9-0.1-1.3c-0.1-1-0.3-2-0.3-3c0-0.5,0.1,0,0.2,0.2
			c0.1,0.2,0.2,0.3,0.2,0.5c0,0.1,0,0.4,0,0.5c0.2,1.5,0.2,3.3,0.4,4.9c0.1,0.9,0.3,1.6,0.5,2.4c0.1,0.4,0.1,0.9,0.3,1.3
			c0.1,0.3,0.2,0.6,0.3,0.9c0.4,0.8,0.9,1.6,1.5,2.2c0.1,0.1,0.1,0.1,0.2,0.2c0,0,0.1,0.1,0.2,0.2c0.2,0.2,0.6,0.4,1,0.6
			c1.1,0.5,2.4,0.7,3.8,1C88.3,69.4,86.7,69.5,85.4,68.8z M83,68.2c-0.8-0.1-1.4-0.1-2.3-0.2c-0.1,0-0.4,0-0.4,0c-0.1,0,0-0.2,0-0.2
			c0-0.1-0.2-0.5-0.2-0.5c0.1-0.1,0.6,0,0.6,0c0.5,0,1.2,0.1,1.8,0.1c0.2,0,0.5,0,0.6,0c0.1,0,0.3,0.3,0.4,0.5
			c0,0.1,0.4,0.4,0.4,0.4C83.8,68.4,83.2,68.2,83,68.2z M79.9,66.3c0,0-0.1-0.3-0.1-0.5c-0.1-0.5-0.2-0.9-0.3-1.4
			c-0.1-0.7-0.2-1.3-0.3-1.9c-0.1-1-0.2-2.1-0.3-3.3c-0.1-1-0.2-2-0.1-2.9c0-0.5,0.3-0.5,0.5-0.8c0.1-0.1,0.1-0.4,0.2-0.5
			c0,0,0.2,0,0.2-0.1c0.1-0.1,0.1-0.2,0.2-0.2c0,0,0,0,0,0c0.6,0.7,0.8,1.8,1,3c0.2,1,0.2,2,0.3,3.1c0.2,1.9,0.6,3.9,1.3,5.5
			c0.1,0.2-0.2,0.1-0.3,0c-0.1,0-0.2,0-0.3,0c-0.5,0-1.4-0.2-1.9-0.1C80,66.3,80,66.4,79.9,66.3z M79.6,68.2c0,0.1-0.1,0.2-0.2,0.4
			c-0.1,0.1-0.1,0.3-0.2,0.4C79,69.1,78,69,77.7,69c-0.5,0-0.9-0.1-1.3-0.2c0.1,0,0.5-0.1,0.5-0.2c0-0.1-0.9,0-1,0
			c-0.6,0-1.2,0.1-1.9,0.2c-0.6,0.1-1.2,0.2-1.9,0.2c-0.5,0-0.9,0-1.4,0c-0.6,0.1-1.1,0.2-1.7,0.2c-0.5,0-0.9,0-1.3,0
			c-0.1,0-0.6,0-0.3-0.1c0.3-0.1,0.8-0.2,1-0.2c0.3,0,0.5,0,0.8,0c0,0,0.3-0.1,0.3-0.1c0-0.1-0.2-0.1-0.3-0.1c-0.3,0-0.8,0-1.1-0.1
			c-0.1,0,0-0.1-0.2-0.1c0.2,0,0.1,0,0.2-0.1c0,0,0.7-0.1,0.7-0.2c0-0.1-0.3,0-0.4-0.1c-0.2,0-0.3-0.1-0.6-0.2
			c-0.3,0,0.3-0.1,0.4-0.1c1.6-0.1,3.3-0.1,5-0.3c0.6-0.1,1.2-0.1,1.7-0.2c0.6-0.1,1.1-0.4,1.4-0.8c0-0.1,0.2-0.4,0.3-0.2
			c0,0.1-0.2,0.5-0.3,0.7c-0.1,0.2-0.5,0.4-0.8,0.5l0,0l0,0c0.3,0,0.8,0.1,1.1,0c0.2,0,0.3-0.1,0.4-0.3c0.1-0.3-0.1-0.9-0.2-1.2
			c0-0.1,0-0.2,0-0.2c-0.1-0.1-0.2,0-0.3-0.1c0-0.1,0-0.2,0-0.3c-0.2-2.1-0.6-3.9-0.8-6.1c-0.1-0.9-0.3-1.9-0.4-2.8
			c-0.1-0.7-0.2-1.3-0.3-1.9c-0.1-0.6-0.4-1.1-0.5-1.8c-0.2-0.8-0.5-1.8-0.6-2.7c0-0.4-0.1-0.7,0-1.1c0-0.2-0.1-0.4-0.1-0.6
			c0-0.5,0-1,0-1.7c0.1-1.2,0.6-2.1,1.1-3c0.6-0.9,0.9-1.8,1.6-2.6c0.1-0.2,0.5-0.2,0.8-0.3c0.3-0.1,0.4-0.1,0.8-0.2
			c0.5-0.1,0.9-0.3,1.5-0.3c0.1,0,0.5,0,0.1,0.1c-0.3,0-0.7,0.1-0.9,0.2c-0.4,0.1-0.6,0.3-0.9,0.4c-0.4,0.1-0.8,0.2-1.1,0.5
			c-0.1,0.1-0.3,0.4-0.4,0.5c-0.3,0.3-0.5,0.6-0.7,1c-0.1,0.5-0.1,0.9-0.4,1.3c-0.2,0.4-0.5,0.7-0.6,1.1C75,46.2,75,46.5,75,46.8
			c0,0.8,0.1,1.4,0.2,2.2c0,0.4,0.1,0.6,0.1,1c0,0.1-0.1-0.3-0.1-0.3c-0.3-0.8-0.5-1.7-0.5-2.5c0,0,0-0.4,0-0.4
			c-0.1,0-0.1,0.2-0.1,0.3c0,0.4,0,0.8,0.1,1.3c0,0.5,0.1,0.9,0.2,1.3c0.2,0.6,0.2,1.3,0.5,1.9c0.2,0.4,0.5,1,0.6,1.5
			c0,0,0.2,0.5,0.2,0.5c0,0-0.3-0.4-0.3-0.4c-0.2-0.3-0.3-0.5-0.5-0.8c-0.1-0.1-0.2-0.4-0.2-0.4c-0.1,0-0.1,0.2-0.1,0.2
			c0,0.1,0.2,0.5,0.2,0.5c0.1,0.3,0.2,0.5,0.3,0.7c0.2,0.7,0.3,1.3,0.4,2c0.1,0.7,0.3,1.4,0.3,2.3c0,0.3,0,0.9,0.1,1.1
			c0.1,0.2,0.2,0.2,0.2,0.4c0.1,0.4,0.1,0.8,0.1,1.2c0.1,0.6,0.2,1.2,0.2,1.8c0,0.3,0.1,0.8,0.1,1.2c0,0.3,0.1,0.4,0.2,0.6
			c0.1,0.3,0,0.8,0.2,0.9c0.1,0.1,0.1-0.1,0-0.2c-0.1-0.7-0.2-1.4-0.2-1.9c-0.1-1.3-0.2-3-0.2-4.5c0-0.4-0.1-0.7-0.1-1
			c0-1.2-0.1-2.4-0.4-3.5c0,0-0.1-0.3-0.1-0.4c0,0,0.2,0.3,0.2,0.3c0.1,0.1,0.1,0.2,0.1,0.4c0.2,0.7,0.4,1.1,0.5,1.8
			c0.1,0.7,0.2,1.4,0.2,2.1c0,1,0.1,2.2,0.2,3.3c0.1,0.9,0.2,1.7,0.3,2.5c0.1,0.8,0.2,1.9,0.4,2.8c0.1,0.7,0.2,1.6-0.3,1.9
			c-0.1,0-0.3,0.2-0.5,0.2c-0.1,0-0.3,0-0.3,0.1c0,0.1,0.6,0.1,0.8,0.1c0.4,0,0.7,0,0.8-0.1c0.1-0.1,0.2-0.4,0.2-0.6
			c0-1.2-0.5-2.1-0.7-3.2c-0.1-0.7-0.2-1.7-0.2-2.5c0-0.5-0.2-1.2-0.1-1.5c0.3,2.1,0.6,4.1,1.1,6c0,0,0,0.3,0.2,0.2
			c0,0-0.1-0.3-0.1-0.3c-0.1-0.6-0.3-1.7-0.4-2.3c0-0.2,0-0.3-0.1-0.5c-0.1-0.4-0.1-0.6,0.2-0.7c0,0,0.2,0,0.2,0
			c0,0,0.1,0.4,0.1,0.5c0.2,0.9,0.2,1.9,0.4,2.8C79.6,67,79.8,67.6,79.6,68.2z M75.7,66.4c-0.1,0-0.2,0-0.3,0c-0.6-0.1-1.2,0-2,0
			c-1.3-0.1-2.6,0-3.9,0.1c-0.6,0.1-1.4,0.2-2,0.1c0,0-0.3-0.1-0.3-0.1c-0.1-0.1,0.3-0.3,0.4-0.3l0,0l0,0c-0.4-0.1-1-0.2-1.5-0.2
			c0.5-0.2,1.2,0,1.7-0.2l0,0l0,0c-0.5,0-1-0.1-1.4-0.1c2.3-0.5,5.3-0.4,7.3-1.4c0.4-0.2,0.7-0.5,0.7-1.1c0-0.5,0-1-0.1-1.6
			c-0.2-2.1-0.5-4.2-0.8-6.5l0,0l0,0c0,0,0,0,0,0l0,0l0,0c-0.1-0.7-0.2-1.4-0.3-2c-0.1-0.7-0.5-1.2-0.7-1.8
			c-0.1-0.4-0.3-0.8-0.5-1.2c-0.2-0.7-0.2-1.4-0.3-2.2c0-1.1,0-2.2,0.2-3.2c0.1-0.7,0.3-1.5,0.6-2c0,0,0.1-0.3,0.1-0.2
			c0,0,0.1,0.3,0.1,0.4c0.1,1,0.3,2.1,0.6,2.9l0,0l0,0c-0.2-1.3-0.3-2.6-0.5-4c-0.2-1.6-0.2-3.2-0.3-4.9c0-0.7-0.1-1.5-0.2-2.1
			c0-0.1-0.1-0.7-0.1-0.7c0,0,0.4,0,0.5,0c0.1,0,0.5-0.1,0.5,0c0.1,0.3,0.2,0.6,0.2,0.9c0.2,1.2-0.1,2.9,0.9,3.3
			c0.1,0,0.2,0,0.3,0.1c0.1,0.1,0.2,0.2,0.2,0.4c0,0.1-0.1,0.3-0.1,0.4c0,0.6,0.8,0.4,1.2,0.3c0.2-0.1,0.5-0.1,0.4,0.2
			c-0.2,0.6-1.1,1.1-1.1,1.9c0,0.1,0.1,0.5,0.2,0.5c0,0,0.2-0.3,0.3-0.4c0.4-0.5,0.7-0.9,1.4-1.1c0.3-0.1,0.6-0.1,0.8-0.2
			c0.7-0.2,1.6-0.3,2.3,0.1c0.2,0.1-0.3,0-0.4,0c-0.2,0-0.3,0-0.5,0c-0.5,0-0.9,0.3-1.3,0.3c-0.4,0-0.9,0.1-1.2,0.3
			c-0.2,0.2-0.5,0.5-0.7,0.8c-0.2,0.3-0.5,0.5-0.6,0.8c-0.2,0.3-0.3,0.5-0.4,0.7c-0.4,0.6-0.8,1.2-1.1,2c0,0.1-0.1,0.2-0.1,0.2
			c-0.4,1-0.4,2.7-0.3,3.9c0.1,1.4,0.3,2.7,0.7,3.9c0.1,0.2,0.1,0.4,0.2,0.6c0.1,0.3,0.3,0.7,0.3,1.2c0,0.8,0.1,1.5,0.2,2.3
			c0.2,2.1,0.2,4,0.3,6c0,0.4,0,1-0.1,1.3c0,0.1,0,0.1,0,0.1c0,0,0,0.1,0,0.1c0,0.1,0.2,0.4,0.1,0.6c-0.1,0.1-0.7,0.1-0.9,0.1
			c-1.2,0.1-2.3,0.2-3.3,0.4l0,0v0c1,0.1,2.3-0.3,3.4-0.2c0.3,0,0.6,0.2,1,0.2c0.1,0,0.3-0.1,0.4-0.2c0,0,0-0.3,0.1-0.3
			c0,0,0.2,0.1,0.2,0.1c0.1,0.1-0.1,0.6-0.2,0.7C75.9,66.5,75.7,66.4,75.7,66.4z M69.9,33.6c-0.6,0-1.3,0.1-1.7,0.3
			c-0.2,0.1-0.4,0.6-0.7,0.5c0,0-0.2-0.1-0.2-0.2c0,0,0.2-0.3,0.3-0.3c0.2-0.2,0.4-0.2,0.7-0.4c-0.1,0,0.1,0,0.1-0.1
			c0,0-0.7,0.1-0.7,0.1c-0.3,0.1-0.8,0.3-1.1,0.4c-0.2,0.1,0-0.2,0.1-0.3c0.3-0.4,0.9-0.6,1.4-0.6l0,0l0,0c-0.3-0.2-0.6-0.3-1.1-0.4
			c-0.1,0-0.6-0.1-0.6-0.1c0,0,0.2-0.3,0.3-0.3c0.3-0.1,1,0.2,1.4,0.2l0,0l0,0c-0.1-0.1-0.2-0.1-0.4-0.3c-0.1-0.1-0.4-0.3-0.3-0.4
			c0.1,0,0.3,0.1,0.4,0.1c0.3,0.1,0.4,0.2,0.7,0.2l0,0l0,0c-0.1,0-0.4-0.6-0.4-0.6c0.1-0.1,0.6,0.3,0.7,0.4c0.2,0.2,0.4,0.3,0.7,0.4
			c0.4,0.1,1.1,0,1.6,0c0.4,0,0.8-0.1,1.2-0.2c0.8-0.1,1.6-0.4,2.4-0.6c0.4-0.1,0.7-0.3,1-0.3c0.2,0,0.4,0,0.5-0.1
			c0.1-0.1,0.1-0.4,0.1-0.5c0-0.4-0.1-0.6-0.1-1c0-0.1-0.1-0.5-0.2-0.5c0,0-0.2,0.4-0.2,0.5c0,0.1,0,0.2,0,0.3
			c0,0.1-0.3,0.3-0.4,0.5c0,0.1,0,0.1,0,0.2c0,0.1-0.1,0.1-0.2,0.1c-0.2,0.2,0,0.3-0.4,0.4c-0.1,0-0.3,0.1-0.4,0.1
			c-0.1,0-0.3,0.2-0.4,0.1c-0.3-0.1-0.1-1-0.2-1.3l0,0l0,0c-0.2,0.3-0.5,0.6-0.7,0.8c-0.1,0.1-0.4,0.3-0.4,0.2c0,0-0.1-0.4-0.1-0.5
			c0-1.5,0.3-2.8,0.9-3.8c0,0,0.2-0.3,0.1-0.3c-0.1,0-0.2,0.3-0.3,0.4c-0.4,0.6-0.7,1.4-0.9,2.2c-0.1,0.6-0.2,1.2-0.1,2
			c0,0.2,0.1,0.4,0,0.6c0,0-0.2,0.3-0.3,0.3c0,0-0.1-0.3-0.1-0.4c-0.2-0.5-0.4-1.1-0.4-1.7c0-0.5,0.1-1.2,0.3-1.6
			c0.4-1.1,0.8-2.3,1.5-3.2c0.3-0.5,0.8-0.9,1.2-1.3c0.5-0.5,0.9-1.6,1.1-2.4c0-0.1,0-0.5,0.1-0.3c0.1,0.4,0.1,1.1,0,1.5
			c0,0.1,0,0.2,0,0.3c-0.1,0.4-0.2,0.6-0.3,0.9c0,0.2,0.1,0.4,0.2,0.6c0.1,0.4-0.1,0.6-0.2,0.9c0,0.4,0.1,0.8,0.1,1.1
			c0,0.2,0,0.4-0.1,0.5c0,0.2,0.1,0.1,0.2,0c0.1-0.2,0.2-0.4,0.3-0.7c0.1-0.4,0.3-0.7,0.6-1c0.1-0.1,0.2-0.3,0.2,0
			c0,0.2-0.1,0.5-0.2,0.6c0,0.1,0,0.2,0,0.3c0,0.1-0.2,0.2-0.3,0.2c-0.1,0.1-0.1,0.3-0.1,0.4c0,0.2,0.1,0.4,0,0.6
			c0,0.1-0.2,0.1-0.2,0.2c-0.1,0.1-0.1,0.2-0.2,0.3c-0.1,0.2,0,0.4-0.1,0.6c0,0.2-0.2,0.5-0.1,0.7l0,0l0,0c0.1-0.1,0.1-0.4,0.2-0.6
			c0-0.1,0.4-0.2,0.5-0.2c0.1,0.1,0,0.4,0,0.5c0,0.5,0.3,1,0.7,1.1c0.2,0.1,0.4,0.1,0.5,0.2c0.1,0.2,0.2,0.7,0.1,0.9
			c-0.1,0.2-0.4,0.6-0.5,0.7c0,0-0.1,0-0.1,0c-0.3,0.1-0.6,0.4-1,0.5c-0.5,0.2-1.3,0.2-1.9,0.3c-0.1,0-0.1,0.1-0.2,0.1
			c-0.2,0-0.4,0.1-0.7,0.2c-0.3,0.1-0.8,0.1-1.1,0.2c-0.4,0.1-0.9,0.3-1.3,0.4l0,0l0,0c1.1,0,2.4-0.2,3.5-0.3c0.3,0,0.6-0.1,0.8-0.1
			c0.3,0,0.6-0.1,1-0.1c0.3,0,0.6,0,0.9,0c0.1,0,0.2-0.1,0.2-0.1c0.1,0,0.1,0,0.2,0c0.7-0.1,0.8-0.8,0.8-1.6c0-0.4-0.1-0.7,0-1
			c0.1-0.2,0.3-0.4,0.4-0.7c0.1-0.3,0.2-0.6,0.3-0.9c-0.1,0.9-0.2,1.7-0.3,2.6c-0.1,0.8,0,1.7-0.7,2c-0.3,0.1-0.6,0-0.9,0
			c-0.8,0-1.5,0.1-2.3,0.2c-0.7,0-1.4,0.1-2.2,0.2C71.8,33.7,70.8,33.6,69.9,33.6z M68.9,30.8c0.6-1.3,1.2-2.6,1.3-4.1
			c0-0.6-0.2-1.3-0.5-1.8c-0.1-0.2-0.4-0.5-0.6-0.6c-0.3-0.2-0.5-0.4-0.7-0.6c-0.4-0.3-0.8-0.5-1.2-0.8c-0.1-0.1-0.5-0.4-0.6-0.5
			c0,0,0.2,0.1,0.3,0.1c0.6,0.3,1.1,0.6,1.7,0.9c0.6,0.3,1.2,0.8,1.6,1.2c0.5,0.6,0.7,1.5,0.6,2.4c-0.1,0.8-0.5,1.7-0.8,2.4
			c-0.3,0.6-0.7,1.3-1,1.8c0,0-0.2,0.2-0.2,0.1C68.6,31.3,68.8,30.9,68.9,30.8z M66.1,22.3c-0.4-0.2-0.7-0.4-1.2-0.7
			c0.3,0.1,0.6,0.2,1,0.4c0.3,0.1,0.3,0.2,0.5,0.3c-0.1-0.1,0.2,0.2,0.2,0.2C66.6,22.6,66.2,22.3,66.1,22.3z M71.6,31.9
			C71.1,32,70.4,32,69.9,32c-0.2,0-0.3,0-0.3-0.1c0.1-0.2,0.5-0.9,0.6-0.9c0,0,0,0,0,0c0.3,0.3,0.7,0.4,1.1,0.7
			C71.4,31.7,71.7,31.9,71.6,31.9z M71.2,29.3c0,0,0,0.1,0,0.1c0,0.7,0.1,1.2,0.2,1.7c0,0.1,0.1,0.4,0,0.3c-0.1-0.1-0.3-0.3-0.4-0.3
			c-0.1-0.1-0.5-0.3-0.5-0.4c0-0.1,0.3-0.5,0.3-0.6c0.1-0.2,0.3-0.4,0.4-0.6C71.1,29.5,71.1,29.3,71.2,29.3z M75.1,20
			c-0.2,0.1-0.6,0.1-0.8,0c-0.1-0.1-0.6-0.4-0.6-0.5c0.1-0.1,0.1-0.3,0.1-0.4c0.1-0.4,0.3-0.2,0.6-0.4c0.1-0.1,0.3-0.4,0.1-0.5
			c-0.1,0-0.3-0.1-0.3-0.1c-0.1,0-0.2,0.2-0.3,0.2c0,0-0.1,0-0.1,0c0,0-0.4,0.2-0.4,0.2c-0.1-0.1,0-0.3,0-0.3
			c0.1-0.1,0.3-0.1,0.5-0.2c0.1,0,0.1-0.1,0.1-0.1c0.1,0,0.1,0,0.1-0.1c0.1-0.2,0.4-0.3,0.6-0.5c0.3-0.2,0.4-0.5,0.7-0.6
			c0.2-0.1,0.3-0.4,0.7-0.4c0,0,0,0,0,0c0,0-0.1,0.3-0.1,0.3c-0.2,0.4-1.1,0.6-1.2,1.1c0,0.1,0,0.3,0,0.4c0.1,0.1,0.2,0.1,0.3,0.1
			c0.1,0.1,0,0.3-0.1,0.4c-0.1,0.1-0.3,0.3-0.4,0.4c0,0-0.2,0-0.2,0.1c0,0.2,0.3,0,0.3,0c0.2,0,0.1,0.2,0.3,0.1
			c0.2-0.1-0.1,0.3-0.1,0.3c0,0-0.2,0.2-0.3,0.2c-0.1,0-0.3,0-0.2,0.1c0,0.1,0.5,0,0.5,0c0.3-0.1,0.6-0.6,1-0.6c0.2,0,0.4-0.1,0.4,0
			c-0.1,0.2-0.5,0.3-0.6,0.5c-0.1,0.1,0,0.1,0.1,0.1c0.6,0.1,1.5,0.1,1.8-0.2c0.4-0.3,0.7-0.5,1-0.9c0.1-0.1,0.2-0.3,0.3-0.4
			c0-0.1,0.3-0.5,0.3-0.4c0,0.2-0.1,0.6-0.1,0.8c0,0.2-0.2,0.5-0.3,0.7c-0.2,0.2-0.6,0.5-1,0.6C77.5,20,77.1,20,76.7,20
			c-0.1,0-0.6,0.1-0.7,0.1c-0.1,0-0.1-0.2-0.2-0.3C75.5,19.6,75.3,19.9,75.1,20z M73.7,19.9c-0.3-0.1-0.6-0.7-0.5-1
			c0,0,0-0.1,0.1-0.1c0.1,0,0,0.2,0,0.2c0.1,0.3,0.2,0.6,0.4,0.7C73.7,19.8,73.9,20,73.7,19.9z M74.2,17.5c0.2-0.2,0.3-0.5,0.6-0.7
			c0.1-0.1,0.4-0.2,0.4-0.3c0-0.1-0.1-0.1-0.1-0.2c0-0.1,0.2-0.2,0.1-0.3l0,0l0,0c-0.3-0.1,0.1-0.6,0.4-0.4c0.1,0,0.1,0.4-0.1,0.6
			c-0.1,0.1-0.2,0.2-0.3,0.4c-0.2,0.3-0.4,0.5-0.6,0.7c-0.1,0.1-0.3,0.3-0.5,0.4C74,17.8,74.2,17.5,74.2,17.5z M75.9,11.7
			c0-0.1,0-0.3,0.1-0.4c0-0.1,0.2-0.3,0.2-0.2c0,0,0,0,0,0c0.1,0.3,0.2,0.5,0.3,0.8c0.1,0.2,0.1,0.5,0.2,0.7
			c0.1,0.2,0.2,0.4,0.2,0.6c0,0.1,0,0.4,0.1,0.5c0,0.1,0.2,0.2,0.1,0.4c-0.2,0.2-0.5-0.2-0.5-0.4c-0.1-0.3-0.1-0.5-0.3-0.8
			C76,12.5,75.9,12,75.9,11.7z M78,14.5c0.1,0,0.3,0,0.3,0.1c0,0.1-0.2,0-0.2,0c-0.7,0-1.4,0.2-1.8,0.4c0,0-0.2,0.1-0.2,0.1
			c0,0,0.2-0.2,0.2-0.3c0.2-0.2,0.6-0.4,0.9-0.4C77.5,14.4,77.9,14.5,78,14.5z M78.4,15.9c0-0.1-0.2,0.1-0.1,0.1
			c0,0-0.2-0.1-0.2-0.1c-0.2-0.1-0.4-0.2-0.8-0.2c-0.1,0-0.4,0.2-0.2,0c0.1-0.1,0.3-0.2,0.3-0.2c0.1,0,0.4,0,0.4,0
			c0.2,0,0.2,0.1,0.3,0.2C78.2,15.8,78.4,15.9,78.4,15.9z M77.4,16.2C77.5,16.3,77.5,16.2,77.4,16.2c-0.1,0.4,0.2,0.5,0.5,0.5
			c0.2,0,0.2-0.3,0.2-0.3c0,0,0.1,0,0.1,0c0.2,0-0.1,0.3-0.1,0.4c-0.2,0.2-0.6,0.2-0.7,0C77.2,16.6,77.1,16.2,77.4,16.2z M77.9,16.5
			c0,0.1-0.1,0.1-0.1,0.1c-0.1,0-0.1,0-0.1-0.1c0-0.1,0.1-0.1,0.1-0.1C77.9,16.4,77.9,16.4,77.9,16.5z M77.5,16.1
			c-0.1,0-0.4,0.1-0.3,0c0.1-0.1,0.3-0.1,0.4-0.1c0.1,0,0.2,0,0.4,0.1c0.1,0,0.2,0.1,0.2,0.2C78.1,16.3,77.5,16.1,77.5,16.1z
			 M78.8,17.3c0.1-0.1,0.2-0.1,0.3-0.2c0,0,0,0,0-0.1c0,0,0,0,0,0c0,0,0,0,0,0.1c0,0.1-0.1,0.4-0.2,0.5c-0.1,0.1-0.3,0.3-0.5,0.3
			c-0.3,0.1-0.7,0.2-1,0.2C78,18,78.4,17.6,78.8,17.3z M78.9,13.9c0.1-0.4,0.1-1.1,0.4-1.5c0.2-0.3,0.6-0.6,0.8-0.9
			c0-0.1,0.1-0.2,0.2-0.2c0,0,0.1-0.1,0.1,0c0.3,0.6,0.6,1.5,0.3,2.5c-0.1,0.5-0.4,1-0.7,1.5c0,0-0.1,0.2-0.1,0.2
			c0,0-0.3-0.1-0.2-0.2c0,0,0.2-0.2,0.3-0.2c0.4-0.4,0.5-1.1,0.6-1.9l0,0l0,0c-0.2,0.2-0.3,0.4-0.4,0.7c0,0-0.1,0.2-0.1,0.2
			c-0.1,0-0.1-0.8-0.1-0.9c0-0.1,0.1-0.2,0.1-0.3c0-0.2,0.1-0.3,0.2-0.5c0-0.1,0.2-0.3,0.1-0.4c0,0-0.3,0.2-0.3,0.2
			c-0.1,0.1-0.3,0.4-0.4,0.5c-0.3,0.6-0.2,1.3-0.2,1.9c0,0.2,0,0.6-0.2,0.8c0-0.3,0-0.6-0.1-0.7c0,0-0.1,0-0.1,0
			C78.8,14.3,78.9,14,78.9,13.9z M79.9,17.1c0,0,0,0.1,0,0.1c0,0.3-0.2,0-0.2-0.1c0-0.1,0.2-0.3,0.2-0.3
			C80.1,16.9,79.9,17.1,79.9,17.1z M79.7,16.8c0-0.2-0.3-0.7-0.4-0.9c-0.1-0.2,0-0.4,0.1-0.4c0.1,0,0.2,0.2,0.3,0.2
			c0.1,0,0,0.1,0,0.2c0,0.2,0.3,0,0.3,0.2C80,16.3,79.7,16.9,79.7,16.8z M78.7,53.8c-0.1-0.1-0.1-0.5,0-0.6c0.1,0,0.3,0,0.4,0
			c0.1,0,0.3-0.1,0.3-0.2c0.1-0.1,0.2-0.3,0.3-0.4c0.3-0.1,0.5,0.2,0.8,0.1l0,0l0,0c0,0,0,0,0,0l0,0l0,0c-0.3,0.3-0.6,0.6-0.9,1
			c-0.1,0.1-0.2,0.4-0.3,0.4C79.2,54.3,78.8,54,78.7,53.8z M78.5,59.1c0,0.2,0,0.7-0.1,0.7c0,0-0.1,0-0.1,0
			c-0.1-0.1-0.1-0.5-0.1-0.7c0-0.3-0.1-0.6-0.1-0.9c0-0.3,0-0.6-0.1-1c-0.1-0.6-0.3-1.3-0.3-1.9c0-0.5,0.3-0.9,0.8-0.8
			c0.1,0,0.2,0,0.3,0.1c0.1,0,0.4,0.1,0.3,0.1c-0.2,0.2-0.5,0.7-0.6,0.9c0,0.1-0.1,0.2-0.1,0.2c0,0.1-0.1,0.4-0.1,0.6
			C78.3,57.3,78.4,58.2,78.5,59.1z M82,52.9c0,0.4,0,0.9,0,1.2c0,0.1,0,0.6-0.1,0.4c-0.1-0.2-0.2-0.4-0.2-0.5c-0.1-0.3,0-0.6,0.1-1
			c0-0.3,0-0.7,0.1-0.9c0,0,0,0,0,0c0,0,0,0,0,0C81.9,52.3,82,52.7,82,52.9z M80.4,52c0.2-0.2,0.5-0.2,0.7-0.3
			c0.1-0.1,0.1-0.2,0.2-0.2c0,0,0.1,0,0.1,0c0,0,0-0.1,0-0.1c0.1-0.1,0.4-0.1,0.5-0.1c0.1,0,0.1,0.1,0,0.1c-0.2,0.2-0.4,0.4-0.6,0.6
			c-0.1,0.1-0.4,0.4-0.4,0.4c0,0-0.6-0.1-0.6-0.1C80.3,52.1,80.4,52,80.4,52z M66.2,26.5c0,0-0.2-0.2-0.2-0.2c-0.1,0-0.2,0-0.3,0
			c0,0-0.1,0.1-0.1,0.1c0,0,0.2-0.4,0.3-0.4c0.1,0,0.1,0,0.2,0c0,0,0.1,0.1,0.1,0.1C66.1,26.1,66.3,26.5,66.2,26.5z M65.3,26.2
			c0,0-0.2-0.1-0.2-0.1c-0.3-0.1-0.4,0.1-0.6,0.3c-0.1,0.3-0.1-0.1,0-0.3c0.1-0.2,0.2-0.3,0.4-0.3c0.1,0,0.3,0.1,0.3,0.2
			C65.2,26,65.3,26.2,65.3,26.2z M63.9,26.5c-0.2,0.1,0-0.3,0.1-0.4c0,0,0.1,0,0.1,0c0,0,0.1,0,0.1,0.1C64.2,26.5,64,26.5,63.9,26.5
			z M97.9,69c-0.9-0.2-1.8-0.4-2.7-0.4c-1.2-0.1-2.3-0.1-3.4-0.2c-0.4,0-0.7,0-1.1-0.1c-2.2-0.4-4.5-0.8-5.5-2.5
			c-0.4-0.7-0.6-1.6-0.7-2.4c-0.1-0.5-0.1-1-0.2-1.5c-0.1-1,0-2.1-0.1-3.1c0-0.2,0-0.4,0-0.6c0-0.1,0-0.2,0-0.3c0-0.1,0-0.3,0-0.4
			c0-0.5,0-0.9,0-1.4c0-1.2,0.1-2.9,0.2-4.4c0-0.5,0.2-1.1,0.2-1.6c0.1-1.1,0.1-2,0.1-2.9c0-0.5-0.1-0.9-0.1-1.4
			c0-0.3-0.1-0.7-0.2-1.1c-0.2-1.2-0.6-2.2-1.1-3.4c-0.4-1.1-0.7-2.4-1.1-3.4c-0.2-0.6-0.5-1.1-0.7-1.7c-0.4-1.2-0.7-2.3-1.1-3.5
			c-0.2-0.6-0.5-1.2-0.5-1.8c0-0.3,0.1-0.7,0.1-1.1c0-0.8,0.1-1.6,0.1-2.5c0-1.2-0.3-2.2-0.4-3.2c-0.1-0.5-0.2-1.1-0.1-1.7
			c0-0.6,0.2-1.1,0.2-1.8c0-0.2,0-0.4,0-0.6c0-0.4,0.2-0.7,0.3-1.1c0.1-0.4,0.2-0.8,0.2-1.2c0.1-0.8,0.2-1.6,0.1-2.3
			c0,0-0.1-0.1-0.1-0.2c0-0.1,0.3-0.4,0.4-0.6c0.2-0.4,0.4-0.9,0.4-1.5c0.1-0.7-0.1-1.6-0.3-2.1c-0.1-0.1-0.3-0.4-0.5-0.3
			c-0.1,0-0.1,0.2-0.2,0.2c-0.4,0.5-1,1-1.2,1.6c-0.1,0.4-0.1,0.9-0.2,1.3c0,0.1-0.1,0.2-0.1,0.2c-0.1,0-0.3-0.2-0.4-0.2
			c-0.8-0.6-1-1.7-1.4-2.7c-0.1-0.3-0.2-0.5-0.3-0.7c0,0,0,0,0,0c0,0-0.2,0-0.2,0c-0.3,0.1-0.6,0.8-0.6,1.2
			c-0.1,0.8,0.3,1.6,0.4,2.2c0,0.1,0,0.8,0,0.9c0,0-0.2,0.3-0.3,0.3c-0.1,0-0.2,0-0.3,0c-0.2,0.1-0.5,0.4-0.5,0.6c0,0,0,0.1,0,0.2
			c-0.1,0.1-0.2,0-0.3,0c-0.1,0.1,0.2,0.1,0.3,0.2c0.2,0.2-0.1,0.3-0.2,0.4c-0.3,0.3-0.7,0.9-1.1,1.2c-0.2,0.1-0.4,0.2-0.5,0.4
			c0,0,0,0.1,0,0.2c0,0.2-0.1,0.4-0.1,0.5c0,0.5,0.3,1.2,0.9,1.2c0.1,0,0.1-0.1,0.2-0.1c0.1,0,0.2,0.1,0.4,0.2
			c0.2,0,0.3,0.1,0.5,0.1c0.1,0,0.2-0.1,0.3-0.1c0.1,0,0,0.4,0,0.5c-0.1,0.6-0.3,1-0.5,1.5c-0.2,0.4-0.3,0.8-0.6,1.2
			c-0.3,0.4-0.7,0.6-1,1c-0.1,0.2-0.3,0.4-0.4,0.6c-0.1,0.2-0.2,0.3-0.3,0.6c0,0.1-0.1-0.3-0.1-0.5c-0.1-0.6-0.5-1.3-1-1.6
			c-2-1.5-4.5-2.6-7.2-3.4c-0.4-0.1-1.2-0.4-1.5-0.1c-0.6,0.4,0.2,1.1,0.4,1.3c0.5,0.3,1,0.6,1.5,0.8c1.6,0.8,3,1.7,4.3,2.7
			c0.5,0.4,1,1.2,0.8,2.2c-0.1,0.3-0.2,0.6-0.3,0.9c0,0.1-0.1,0.3-0.1,0.3c-0.1,0-0.6-0.2-0.7-0.2c-0.3-0.1-0.5-0.2-0.6-0.3
			c-0.1-0.1-0.2-0.3-0.3-0.4c-0.1-0.1-0.2-0.2-0.2-0.3c-0.1-0.1-0.2-0.1-0.3-0.2c-0.1-0.1-0.1-0.2-0.2-0.3c-0.1,0-0.3-0.1-0.3-0.1
			c-0.1-0.1,0-0.3,0-0.4c-0.1-0.3-0.5-0.6-0.8-0.4c0,0-0.2,0.1-0.1,0.1c0,0-0.1-0.2-0.2-0.2c-0.2-0.2-0.6-0.3-0.9,0
			c-0.1,0.1-0.2,0.4-0.2,0.4c-0.1,0-0.1-0.1-0.2-0.1c-0.3,0-0.5,0.2-0.5,0.4c0,0,0,0.3,0,0.3c0,0-0.3-0.1-0.3,0
			C63.1,26.6,63,26.8,63,27c0,0.5,0.5,0.8,0.9,1c0.1,0,0.6,0.4,0.7,0.3c0,0-0.1-0.2-0.1-0.3c0,0-0.1-0.3-0.1-0.3
			c0.1,0,0.2,0.2,0.3,0.3c0.1,0.1,0.3,0.2,0.3,0.2c0.1-0.1-0.1-0.2-0.1-0.3c0,0,0.3-0.3,0.3-0.3c0,0,0,0.2,0.1,0.2
			c0,0.1,0.4,0.5,0.5,0.4c0.1-0.1-0.1-0.3-0.1-0.4c0,0,0.1,0,0.2,0c0.1,0,0.2-0.2,0.2-0.2c0.1,0,0.3,0.3,0.3,0.3
			c0.2,0.2,0.6,0.5,0.9,0.2c0,0,0.1-0.2,0.1-0.2c0.1,0,0.3,0.3,0.3,0.4c0.3,0.2,0.7,0.3,1.1,0.4c0,0,0.2,0.1,0.2,0.1
			c0,0.1-0.2,0.5-0.2,0.6c0,0.1-0.1,0.2-0.1,0.3c0,0-0.1,0.3-0.1,0.3c-0.1,0-0.3-0.2-0.4-0.2c-0.3-0.2-0.4-0.2-0.8-0.4
			c-0.1,0-0.7-0.3-0.7-0.1c0,0.1,0.9,0.5,1,0.6c0.1,0,0.2,0.1,0.4,0.2c0.1,0,0.3,0.2,0.3,0.2c0,0.1-0.1,0.2-0.1,0.2
			c-0.1,0.2-0.1,0.3-0.2,0.5c-0.1,0.1-0.2,0.4-0.3,0.5c-0.1,0-0.2,0-0.2,0c-0.1,0-0.3,0.1-0.4,0.2c0,0,0,0.1,0,0.1c0,0-0.3,0-0.3,0
			c-0.1,0-0.3,0.1-0.4,0.2c-0.1,0.1-0.1,0.2-0.1,0.3c-0.1,0.1-0.3,0.1-0.4,0.2c-0.1,0.1-0.2,0.2-0.2,0.4c0,0.1,0.1,0.2,0.1,0.2
			c0,0.1-0.1,0.4,0,0.6c0,0,0.1,0.2,0.2,0.2c0.1,0,0.1-0.2,0.1-0.2c0.1-0.2,0.2-0.5,0.5-0.4c0,0,0.2,0,0.2,0c0,0-0.1,0.2-0.1,0.2
			c-0.1,0.2-0.7,0.4-0.7,0.7c0,0.1,0,0.1,0,0.2c0,0.3-0.2,0.5-0.1,0.9c0.2,0.5,1,0.5,1.3,0.1c0.1-0.2,0.1-0.2,0.4-0.3
			c0.3-0.1,0.5-0.5,0.8-0.6c0.5-0.2,1.3-0.3,1.9-0.2c0.5,0.1,1,0,1.4,0c0,0,0.3,0,0.3,0c0.1,0,0.1,0.9,0.1,1
			c0.3,2.1,0.2,4.1,0.4,6.2c0,0.2,0.1,0.5,0.1,0.6c0,0.1-0.2,0.3-0.3,0.4c-0.3,0.6-0.5,1.4-0.7,2.1c-0.3,1.3-0.3,2.9-0.2,4.3
			c0,0.3,0.1,0.6,0.2,0.9c0.1,0.3,0.2,0.6,0.3,0.9c0,0.1,0.1,0.2,0.1,0.3c0,0.1,0.1,0.2,0.1,0.3c0.2,0.5,0.5,1,0.7,1.5
			c0.4,1.1,0.4,2.4,0.6,3.6c0,0.3,0.1,0.6,0.1,0.9c0,0.3,0.1,0.7,0.1,1c0.1,0.3,0.1,0.6,0.1,1c0.1,1,0.2,2.1,0.3,3
			c0.1,0.7,0.1,1.6-0.5,1.9c-1.2,0.6-2.9,0.8-4.4,0.9c-0.5,0-1.1,0.1-1.7,0.2c-0.2,0.1-0.6,0.1-0.8,0.1c-0.2,0-0.5-0.1-0.9-0.1
			c-0.3,0-0.7,0.2-0.9,0.3c-0.2,0.1-0.4,0.2-0.7,0.3C64.2,65.8,64,65.9,64,66c0,0.1,0.2-0.1,0.3,0c0,0-0.1,0.2-0.1,0.2
			c0,0-0.1,0-0.2,0c-0.2,0-0.4,0.2-0.6,0.3c-0.1,0.1-0.1,0.1,0,0.1c0,0.1,0.6-0.1,0.8,0c0.1,0,0.2,0.1,0.2,0.1
			c0.2,0,0.5-0.1,0.2,0.1c-0.1,0-0.4,0.2-0.3,0.3c0.1,0.1,0.5-0.1,0.6-0.1c0.1,0,0.4,0.2,0.6,0.2c0.5,0.1,1.2-0.2,1.7-0.2
			c0.1,0,0.2,0.1,0.3,0.1c0.3,0,0.5,0,0.8,0c1.2-0.1,2.7-0.3,3.8-0.3c0.5,0,1,0,1.5,0c0.5,0,1,0.1,1.5,0.1c0.2,0,0.2,0,0.4,0
			c0.1,0,0.4,0,0.3,0.1c0,0.1-0.6,0.3-0.6,0.3c-0.5,0.1-1.1,0.2-1.8,0.2c-0.5,0.1-1,0.1-1.5,0.1c-0.2,0-0.4,0.1-0.6,0.1
			c-0.5,0-1-0.2-1.5-0.1c-0.4,0-0.6,0.1-1,0.2c-0.4,0.1-0.9,0-1.3,0.1c-0.4,0-0.8,0.3-1.1,0.5c-0.1,0-0.1,0.1-0.2,0.1
			c0,0-0.1,0-0.1,0c-0.1,0-0.5,0.2-0.5,0.3c0,0.1,0.4,0,0.6,0c0.1,0,0.4,0,0.2,0.1c-0.1,0.1-0.5,0.1-0.7,0.2c-0.1,0-0.3,0.3-0.3,0.3
			c0,0,0.6-0.1,0.8-0.1c0.1,0,0.2,0.1,0.3,0.1c0.1,0-0.1,0.1-0.1,0.1c-0.1,0.1-0.4,0.4-0.3,0.4c0.1,0,0.2-0.1,0.3-0.1
			c0.2,0,0.5-0.1,0.6-0.1c0.1,0,0.1,0.1,0.2,0.1c0.2,0.1,0.5,0,0.8,0c0.2,0,0.4,0.1,0.8,0.1c0.3,0,0.6-0.1,0.9-0.1
			c1.1-0.1,2-0.1,3.2-0.2c1.4-0.1,2.7-0.3,4-0.2c0.8,0.1,1.6,0.1,2.4,0c0.2,0,0.4-0.1,0.5-0.1c0.1-0.1,0.2-0.2,0.4-0.3
			c0.1,0,0.3,0,0.4,0c1.4,0,2.6,0,4,0.1c0.2,0,0.5,0,0.6,0c0.2,0,0.4,0.2,0.6,0.3c2,0.6,4.8,0.7,7.2,0.6c1.1,0,2.4-0.1,3.7-0.1
			c0.4,0,0.8,0,1.2-0.1c0.3-0.1,0.9-0.4,0.9-0.6C98.7,69.1,98.2,69,97.9,69L97.9,69z"/>
		<path class="st1" d="M24.2,15.3c0.2,0,0.8,0,0.8,0.4c0,0.4,0,0.8-0.5,0.6C24.1,16.2,24,15.4,24.2,15.3 M75.6,15.3
			c-0.2,0-0.8,0-0.8,0.4c0,0.4,0,0.8,0.5,0.6C75.8,16.2,75.8,15.4,75.6,15.3 M54.5,12.9c-0.2-0.2-1,1.1-0.9,2.3
			c-0.2-0.9-2.4-0.6-1.3,1.3c0.4,0.4-0.1-1.2,0.6-0.9c0.7,0.2,0.4,0.6,0.2,0.6c-0.1,0-0.4,0.3,0.1,0.6c0.2,0.2-1.2,0.8-2,0.3
			c-0.9-0.6-1.1-1.2-0.9-1.3c0.2-0.1,0.7,0.3,1.2,0.8c0-0.3,0.1-1.2,0-2.2c0-0.3-1.3,0.9-1.3,0.7c0-0.7,1.1-1.5,1.1-1.5
			c-0.1-0.1-0.3,0.1-0.3-0.1c0-0.5,0.1-1.4,0.1-1.4c0.1-0.1,1-1,2.3-0.7c1.3,0.2,1.1,0.2,1.2,0.2c0.1-0.1,1.8-0.9,3-0.4
			c0.2,0.1,0.8,0.3,0.8,0.5c0,0.2,0,1.4-0.5,2.7c-0.1,0.2-0.3,0.1-0.8-0.1c0,0,0.7,1.5,0.7,1.6c0,0.3-0.2,0.2-0.3,0.1
			c-0.2-0.2-0.5-0.6-0.8-1.1c-0.1-0.1-0.5,1.9-0.7,2.2c-0.1,0.2,1.3-0.5,1.4-0.4c0.3,0.1-0.6,1.3-1.7,1c-1.4-0.3-1.3-0.9-1.1-0.9
			c0.2,0,0.5-0.4,0.1-0.6c-0.3-0.1,0-0.7,0.4-0.6c0.7,0.2,0,1.3,0.2,1.2c1.8-1.2,0-2.6-0.7-1.8C54.9,14.8,55.2,13.8,54.5,12.9
			 M45.5,12.9c0.2-0.2,1,1.1,0.9,2.3c0.2-0.9,2.4-0.6,1.3,1.3c-0.4,0.4,0.1-1.2-0.6-0.9c-0.7,0.2-0.4,0.6-0.2,0.6
			c0.1,0,0.4,0.3-0.1,0.6c-0.2,0.2,1.2,0.8,2,0.3c0.9-0.6,1.1-1.2,0.9-1.3c-0.2-0.1-0.7,0.3-1.2,0.8c0-0.3-0.1-1.2,0-2.2
			c0-0.3,1.3,0.9,1.3,0.7c0-0.7-1.1-1.5-1.1-1.5c0.1-0.1,0.3,0.1,0.3-0.1c0-0.5-0.1-1.4-0.1-1.4c-0.1-0.1-1-1-2.3-0.7
			c-1.3,0.2-1.1,0.2-1.2,0.2c-0.1-0.1-1.8-0.9-3.2-0.4c-0.2,0.1-0.5,0.2-0.6,0.5c0,0.2,0,1.4,0.5,2.7c0.1,0.2,0.3,0.1,0.8-0.1
			c0,0-0.7,1.5-0.7,1.6c0,0.3,0.2,0.2,0.3,0.1c0.2-0.2,0.5-0.6,0.8-1.1c0.1-0.1,0.5,1.9,0.7,2.2c0.1,0.2-1.3-0.5-1.4-0.4
			c-0.3,0.1,0.6,1.3,1.7,1c1.4-0.3,1.3-0.9,1.1-0.9c-0.2,0-0.5-0.4-0.1-0.6c0.3-0.1,0-0.7-0.4-0.6c-0.7,0.2,0,1.3-0.2,1.2
			c-1.8-1.2,0-2.6,0.7-1.8C45.1,14.8,44.8,13.8,45.5,12.9 M47.1,18.6c0,0.3-0.4,0.6-0.9,0.6c-0.5,0-0.9-0.2-0.9-0.5
			c0-0.3,0.4-0.6,0.9-0.6C46.7,18.1,47.1,18.4,47.1,18.6"/>
		<polyline class="st1" points="42.1,19 42.5,19.6 43.6,18.8 42.3,18.4 42.1,19 		"/>
		<path class="st6" d="M43.6,19l-1.4,0.2L43.6,19z M45.1,16.4c0.1-0.5-0.4-0.6-0.5-0.5c-0.5,0.2,0,1.2,0,1.2
			c-1.9-0.9-0.1-2.9,0.7-1.6c0.1,0.1-0.7-0.9,0.2-2.6c1.2,1.4,0.7,2.6,0.8,2.5c0.4-1.4,2.7,0.1,1.1,1.4c0,0,0.3-1-0.3-1.1
			c-0.2,0-0.6,0.1-0.4,0.6L45.1,16.4z M44.9,16.7c0,0.2,0.2,0.3,0.4,0.3l1.4-0.2c0.2,0,0.3-0.2,0.3-0.3c0-0.2-0.2-0.3-0.4-0.3
			l-1.4,0.2C45,16.4,44.8,16.5,44.9,16.7z M41.9,14.4c-1.8-3.9,0.8-4.8,1.8-4.8c2.1,0.1,2.1,1.3,4.7,1.4"/>
		<path class="st6" d="M48.1,9.9c-2.2,0-1.8-1.2-4.3-1.2c-1.6,0-4.9,1-2.7,6.1 M49.6,13.6c0,0-0.1-1.2-0.2-2.1
			c-0.1-0.9-0.6-2.1-0.6-2.1h-0.8c0,0,0.5,1.1,0.8,2.1c0.2,0.8,0.2,2.1,0.2,2.1 M42.3,16.8c0.2,0.6,0.9,1,1.7,1
			c0.7,0,1.2-0.4,1.5-0.9 M46.6,16.8c0.3,0.4,0.9,0.6,1.5,0.5c0.9-0.1,1.6-0.8,1.5-1.6"/>
		<path class="st6" d="M42.1,16.1c-0.1-0.5,0.6-1.8,0.6-1.8l-1.8,0.5 M42.1,16.1c0.4-0.1,1-1.2,1-1.2l0.7,2.3c0,0-1.1-0.6-1.5-0.5
			 M50,17.4l-0.3-0.8c-0.1,0.4-0.7,0.8-1.5,1c-0.9,0.2-1.7,0-1.9-0.5l-0.2,0.7l-0.4-0.6c-0.1,0.4-0.8,0.7-1.6,0.8
			c-0.8,0.1-1.5-0.1-1.7-0.5l-0.2,0.7 M45.3,18.7c0,0.3,0.4,0.5,0.9,0.4c0.5,0,0.9-0.3,0.9-0.5c0-0.3-0.4-0.5-0.9-0.4
			C45.7,18.2,45.3,18.4,45.3,18.7z M42.1,19l0.4,0.6l1-0.8l-1.2-0.4L42.1,19z"/>
		<path class="st1" d="M42.1,2.8c0.1-0.3,0.4-0.5,0.3-0.9c0-0.2,0-0.4-0.1-0.4c0-0.1,0-0.5,0.2-0.6c0.1-0.1,0.1-0.4,0.2-0.3
			c0,0.1,0.2,0.4,0.2,0.5c0.1,0.3,0.1,0.7-0.1,1c-0.1,0.1-0.4,0.6-0.4,0.8 M40.9,3c0-0.1,0.3-0.3,0.3-0.8c0-0.2-0.1-0.7-0.1-0.9
			c0-0.2-0.1-0.6,0-0.9c0-0.1,0.2-0.3,0.2-0.1c0,0.1,0.2,0.7,0.3,0.9c0.2,0.3,0.1,0.7,0,0.9s-0.3,0.5-0.4,1 M39.6,3.6
			c0-0.2,0.1-1.6-0.1-2c-0.1-0.1-0.6-0.7-0.6-0.7c0-0.1,0-0.1-0.1-0.2c-0.1-0.1,0.1-0.1,0.2-0.1c0.1,0,0.9,0.1,1.1,0.8
			c0.1,0.1,0,0.7,0,0.9c-0.1,0.1,0,0.8-0.1,1c-0.1,0.1,0,0.3-0.1,0.4 M38.1,4.8C38,5.1,38.1,3.4,38,3c-0.1-0.5-0.1-0.6-0.2-0.7
			c-0.1-0.2,0-0.3-0.3-0.5c-0.2-0.1-0.2-0.3-0.4-0.3c-0.1,0,0.2-0.1,0.3,0c0.1,0,0.8,0,1.1,0.8c0,0.1,0,0.6,0,0.9c0,0.1,0,0.2,0,0.3
			c0,0.1-0.1,1.1-0.1,1.2C38.4,4.6,38.2,4.6,38.1,4.8 M37.5,5.6c0-0.1-0.3-1.1-0.3-1.3c0-0.6-0.2-2.4-1.7-2.2
			c-0.4,0-0.7,0.4-0.5,0.4c0.1,0.1,0.1-0.3,0.7,0c0.2,0.1,0.9,1,1.1,1.8c0,0.1,0.3,1.1,0.3,1.3 M36.3,8.2c-0.1-0.2-0.2-0.5-0.4-1
			c-0.1-0.4-0.4-1-0.6-1.2c-0.4-0.3-0.7-1.5-1.3-1.6c-0.1,0-0.7,0.1-0.5-0.1C33.5,4.3,34,3.8,35,4.3c0.1,0.1,1.2,1.1,1.3,2.3
			c0,0.1,0.1,0.9,0.4,1 M43.5,2.7c0.6-0.4,0.6-0.9,0.6-1.1c0-0.2-0.1-0.5-0.2-0.7c0,0-0.1,0.1-0.2,0.2c-0.1,0.1-0.1,0.5-0.1,0.9
			c0,0.1-0.3,0.4-0.4,0.6"/>
		<path class="st1" d="M42.2,21.4c-0.1-0.1-0.2-0.2-0.3-0.3c-1.3-1.3-3.1-5-3.6-5.1c-0.7-0.2-0.7-0.5-0.7-0.6s0-0.2-0.1-0.2
			c0-0.1,0.4-0.4,0.4-0.4c0.2,0.1,0.3,0,0.2-0.1c-0.3-0.4-0.9-2.2-1.1-2.3c-0.7-0.4-0.6-0.9-0.5-1c0-0.1,0.3-0.2,0.4-0.3
			c0.1-0.1,0.1,0,0.2,0.1c0,0,0.2,0.2,0.2,0.1c-0.3-1.3-0.1-2.2-0.2-2.3c-0.7-0.2-0.7-0.5-0.7-0.6c0-0.1,0-0.3,0.1-0.3
			c0.1-0.2,0.2-0.2,0.3-0.2c0.4-0.1,0.5,0.2,0.5,0.2c0,0,0.2,0.1,0.2,0c0-0.2,0.1-0.8,0.1-0.9c0-0.1-0.1-0.5-0.1-0.5
			c-0.3,0-0.3-0.5-0.3-0.5c0-0.2,0-0.2,0.1-0.3c0,0,0.2-0.1,0.3-0.1c0.3,0,0.3,0.6,0.3,0.7c0,0.1,0.1,0.1,0.1,0.1c0,0,0.1,0.1,0.1,0
			c0-0.2,0.3-0.9,0.3-0.9c-0.2-0.4-0.2-0.8-0.1-0.9c0.1,0,0.1-0.1,0.2-0.1c0.1,0,0.1,0,0.2,0.1c0.1,0,0.1,0.3,0.1,0.4
			c0,0.1,0.1,0.1,0.1,0c0.1-0.2,0.6-0.6,0.6-0.7c0-0.2,0-0.5,0-0.5c0-0.1,0.1-0.1,0.1-0.2c0-0.1,0.4-0.2,0.4,0c0,0.1,0,0.5,0,0.5
			c0.2,0.1,0.6-0.3,0.7-0.5c0.1-0.1,0.1-0.3,0.1-0.6c0-0.2,0.3-0.2,0.5-0.2c0.1,0,0,0.4,0,0.5c-0.1,0.1,0.3-0.1,0.5-0.1
			C41.9,3.2,42,3,42,2.8c0-0.1,0.3-0.1,0.5-0.1c0.1,0,0,0.3-0.1,0.4c-0.1,0.1,0.4-0.1,0.6-0.2c0.2-0.1,0.2-0.2,0.3-0.4
			c0-0.1,0.1-0.2,0.4-0.1c0.2,0.1,0,0.3,0,0.3c0,0.1,0.5,0.1,0.6,0c0.1-0.1,0.2-0.3,0.4-0.2C44.7,2.8,44.4,3,44.6,3
			c1,0.1,1.2,0.5,0.8,0.3c-0.6-0.2-2.1-0.1-2.4,0c-8.7,2.4-3.9,12.8-0.3,16.8c0,0-0.2,0-0.3,0.2c-0.1,0.2-0.4,0.6-0.3,0.8
			C42.2,21.2,42.2,21.4,42.2,21.4"/>
		<path class="st1" d="M32.6,17.4c0,0.1,0.1,0.3,0.3,0.3c0,0,0.1,0,0.1,0C32.8,17.6,32.6,17.5,32.6,17.4z M34.7,17.8
			c0,0-0.1,0-0.1-0.1c0.1,0,0.2,0.1,0.3,0.1c0,0,0.1,0,0.2-0.1C34.9,17.8,34.7,17.8,34.7,17.8z M37.5,14.4c-0.2,0-0.9-0.7-1.1-0.9
			c-0.2-0.1,0.3-0.4,0.5-0.4c0.5,0,0.6,0.6,0.6,0.7C37.5,13.9,37.5,14.4,37.5,14.4z M37.1,13.1c-0.1-0.1-0.6,0-0.7,0
			c-0.1,0-0.5-0.1-0.8,0c-0.2,0.1-0.6,0.4-0.9,1.6c0,0.1-0.3,0.1-0.8,0.8c0,0,0,0.1-0.1,0.1c0,0,0,0,0,0c0.2-0.3,0.7-0.8,0.7-0.7
			c0,0.5-0.3,1-0.3,1.1c0,0.1-0.1,0.2,0,0.1c0.2-0.1,0.6-0.6,1.1-0.7c0.1,0-0.1,0.3-0.2,0.3c-0.3,0.3-0.5,1.3-0.5,1.5
			c0,0.8,0.5,0.6,0.5,0.6c0.3-0.2,0.6-0.7,0.6-1.6c0.1-1.5,0.5-2.6,0.6-2.5c0.3,0.2,0.8,0.9,1.2,1.5l0.3-0.3
			C37.8,14.7,37.6,13.4,37.1,13.1z M33.5,17.6c-0.1,0-0.2,0.1-0.3,0.1C33.3,17.7,33.4,17.6,33.5,17.6z M33.4,14.3
			C33.4,14.3,33.3,14.3,33.4,14.3c0,0.1-0.1,0.1-0.1,0.2C33.3,14.4,33.3,14.4,33.4,14.3C33.4,14.3,33.4,14.3,33.4,14.3z M32.2,15.1
			C32.2,15,32.1,15,32.2,15.1c0,0.1,0.1,0.4,0.2,0.6C32.2,15.3,32.2,15.1,32.2,15.1z M33.2,15.4c0,0.1,0,0.3,0,0.5
			C33.1,15.9,33.1,15.6,33.2,15.4z M33.2,15.1c0-0.1,0-0.2,0-0.3C33.2,14.9,33.2,15,33.2,15.1L33.2,15.1z M35.1,9.3
			c-0.1-0.1,0.1-0.6,0.4-0.8c0.1,0,0.1,0,0.2,0c-0.1,0-0.1,0-0.2,0c-0.2,0-0.6,0-0.7,0c0,0-0.3-0.2-0.6,0.1
			c-0.3,0.3-0.8,0.8-0.8,1.6c0,0.2,0,0.7-0.2,0.4c0,0,0,0-0.1-0.1c0.2,0.3,0.3,0.6,0.4,0.7c0-0.2,0.1-0.8,0.1-0.9
			c0-0.1,0.2-0.5,0.2-0.4c0,0.1,0.1,0.3,0.2,0.4c0.2,0.2,0.2,0.8,0.2,0.7c0-0.2,0.4-0.4,0.4-0.5c0-0.1,0.1-0.4,0.2-0.4
			c0,0,0.1,0.5,0.1,0.7c0,0.5-0.3,0.7-0.4,0.9c-0.1,0.4,0.4,0.2,0.3,0.3c0,0-0.1,0.1-0.2,0.1c0.1,0,0.3-0.1,0.3-0.3
			C35.2,11.2,35.1,9.6,35.1,9.3C35.1,9.3,35.1,9.3,35.1,9.3z M34.6,12C34.6,12.1,34.6,12,34.6,12C34.6,12,34.6,12,34.6,12
			C34.6,12,34.6,12,34.6,12z M34.6,12C34.6,12,34.6,12,34.6,12c0,0,0,0-0.1,0C34.5,12,34.5,12,34.6,12z M36,8.7
			c0.1,0.1,0.2,0.2,0.2,0.3c0,0.1,0.4,1.7,0.3,1.6c-0.4-0.2-1-0.9-1.1-1c0,0,0-0.1-0.1-0.1c0,0.2,0.1,0.5,0.4,1
			c0.1,0.2,0.6,0.7,0.7,0.8l0.5-0.2C36.9,11,36.6,9.4,36,8.7z M33,12c0.1,0.1,0.1,0.1,0.2,0.2C33.2,12.1,33.1,12,33,12z M34,12.1
			c-0.3,0-0.6,0-0.7,0.1C33.6,12.1,33.8,12.1,34,12.1L34,12.1z M42.1,2.8c0.1-0.3,0.4-0.5,0.3-1c0-0.2,0-0.4,0-0.4
			c-0.1-0.3,0.2-1,0.3-0.9c0,0.1,0.2,0.4,0.2,0.5c0.1,0.3,0,0.7-0.1,1c-0.1,0.1-0.4,0.6-0.4,0.8 M37.5,5.7c0-0.1-0.3-1.1-0.3-1.3
			c0-0.7-0.2-2.4-1.7-2.3c-0.4,0-0.7,0.4-0.5,0.5c0.1,0.1,0.3-0.3,0.7,0c1.1,1,1.4,3,1.4,3.3 M36.3,8.2c-0.1-0.2-0.2-0.5-0.4-0.9
			c-0.1-0.4-0.4-1-0.6-1.2c-0.4-0.3-0.7-1.5-1.3-1.6c-0.1,0-0.7,0.1-0.5-0.1C33.5,4.3,34,3.8,35,4.3c0.2,0.1,1.2,1.1,1.3,2.4
			c0,0.1,0.1,0.9,0.4,1"/>
		<path class="st6" d="M37.1,11.2c0-0.1-0.6-2.9-1.6-2.8c-0.2,0-0.6,0-0.7,0c0,0-0.3-0.2-0.6,0.1s-0.8,0.8-0.8,1.6
			c0,0.2,0,0.7-0.2,0.4c-0.1-0.1-0.7-0.7-0.5-0.3c0.2,0.3,0.2,0.5,0.2,0.7c0,0.2,0,1,0.4,1c0.6,0,0.7-0.1,1.3-0.1
			c0.1,0,0.4,0,0.5-0.4c0.2-0.5,0-2,0-2.3c0-0.1,0.2,0,0.2,0.1c0.1,0.1,0.1,0.5,0.5,1.1c0.1,0.2,0.7,0.9,0.8,1 M37.9,14.8
			c-0.1-0.1-0.3-1.4-0.8-1.7c-0.1-0.1-0.6,0-0.7,0c-0.1,0-0.5-0.1-0.8,0c-0.2,0.1-0.6,0.4-0.9,1.6c0,0.1-0.3,0.1-0.8,0.8
			c0,0.1-0.1,0.3-0.2-0.1c0-0.1-0.4-1.3-0.4-1.2c0,0-0.2,0.6-0.2,1c0,0.2,0,0.4,0,0.7c0,0.2,0-0.1-0.6-0.6c-0.1-0.1-0.5-0.5-0.4-0.2
			c0.1,0.1,0.2,0.6,0.3,0.8c0.1,0.1,0.1,0.4,0.1,0.5c-0.1,0.4-0.3,1.2,0.3,1.3c0.5,0.1,0.4-0.1,0.9-0.1c0.7,0,0.6,0.2,1,0.2
			c0.1,0,0.8-0.3,0.9-1.8c0.1-1.5,0.5-2.5,0.6-2.5c0.3,0.2,0.8,1,1.2,1.6 M35.2,17.5c-0.4,0.2-0.6-0.1-0.6-0.5
			c0-0.4,0.3-1.3,0.5-1.5c0.5-0.5,0.1-0.3-0.3-0.1c-0.2,0.2-0.7,0.7-0.5,0.4c0.2-0.3,0.4-0.7,0.4-1.1 M35,11.8
			c-0.2,0.2-0.6,0-0.4-0.3c0.2-0.3,0.5-0.6,0.3-1.4c-0.1-0.2-0.2,0.2-0.2,0.3c-0.1,0.2-0.4,0.2-0.4,0.6c0,0,0-0.5-0.2-0.7
			c-0.1-0.1-0.2-0.4-0.2-0.5c0-0.2-0.1,0.4-0.2,0.5c-0.1,0.1-0.1,0.6-0.1,0.9c0,0.1-0.1-0.5-0.4-0.8 M35.6,8.5
			c-0.1,0-0.7,0.2-0.5,1.2 M36.2,8.9c0.2,0.4,0.4,1,0.4,2.3 M35.3,9.4c0.2,0.4,0.9,1.1,1.2,1.2 M36.9,13.1c-0.4,0-0.6,0.3-0.8,0.9
			 M37.4,13.4c0.2,0.5,0,1.4,0.2,1.6 M36.4,13.4c0.3,0.2,0.9,0.9,1.1,0.9 M34.5,12c0,0,0,0.1,0,0.2c0,0.1,0.2,0.5,0.2,0.6
			c-0.1,0.1-0.2,0.1-0.2,0.1 M33.2,12c0,0-0.1,0.1-0.1,0.2c0,0.1,0,0.5-0.1,0.6c-0.1,0.1-0.2,0-0.2,0 M34.2,12c0,0,0,0.2,0,0.2
			c0,0.1,0.1,0.3,0.1,0.5c0,0.1,0,0.2-0.2,0.2 M33.6,12.1c0.1,0.3,0.1,0.5,0,0.7c0,0.1-0.1,0.2-0.1,0.2 M33.4,12.1
			c0.1,0.3,0,0.5,0,0.7c0,0.1-0.1,0.2-0.2,0.2 M33.9,12c0,0,0.1,0.3,0.1,0.4c0,0.1,0.1,0.4,0,0.5c-0.1,0.1,0,0.5,0,0.6
			c0.1,0.2,0.2,1-0.1,0.9c-0.1-0.1-0.1-0.2-0.1-0.3 M33.3,17.6c0,0.2-0.1,1-0.4,0.9 M32.9,17.6c0,0.2-0.1,0.8-0.4,0.7 M34.5,17.7
			c0,0-0.1,0.8,0.3,0.9 M34.1,17.6c0,0-0.1,1,0.3,1 M33.7,17.5c0,0,0.1,1.1-0.3,1.1 M34,17.5c0,0.1,0,0.8,0,0.9
			c0,0.1,0.3,1.5-0.1,1.9c-0.1,0.1-0.5,0.2-0.3-0.4"/>
		<path class="st1" d="M43.5,2.7c0.6-0.4,0.6-0.9,0.6-1.1c0-0.2-0.1-0.5-0.2-0.7c0,0-0.1,0.1-0.2,0.2c-0.1,0.1-0.1,0.5-0.1,0.9
			c0,0.1-0.3,0.4-0.4,0.6"/>
		<path class="st6" d="M50,17.4l-0.3-0.8c-0.1,0.4-0.7,0.8-1.5,1c-0.9,0.2-1.7,0-1.9-0.5l-0.2,0.7l-0.4-0.6
			c-0.1,0.4-0.8,0.7-1.6,0.8c-0.8,0.1-1.5-0.1-1.7-0.5l-0.2,0.7 M40.5,15c0.3-0.3,0.3-0.7,0.1-1c-0.3-0.3-0.7-0.3-1-0.1
			c-0.3,0.3-0.3,0.7-0.1,1C39.8,15.2,40.2,15.2,40.5,15z M40.5,15c0.3-0.3,0.3-0.7,0.1-1c-0.3-0.3-0.7-0.3-1-0.1
			c-0.3,0.3-0.3,0.7-0.1,1C39.8,15.2,40.2,15.2,40.5,15z M40.1,13.5c0.3-0.3,0.3-0.7,0.1-1c-0.3-0.3-0.7-0.3-1-0.1
			c-0.3,0.3-0.3,0.7-0.1,1C39.4,13.7,39.8,13.7,40.1,13.5z M40.1,13.5c0.3-0.3,0.3-0.7,0.1-1c-0.3-0.3-0.7-0.3-1-0.1
			c-0.3,0.3-0.3,0.7-0.1,1C39.4,13.7,39.8,13.7,40.1,13.5z M40.1,11.9c0.3-0.3,0.3-0.7,0.1-1c-0.3-0.3-0.7-0.3-1-0.1
			c-0.3,0.3-0.3,0.7-0.1,1C39.3,12.1,39.8,12.1,40.1,11.9z M40.1,11.9c0.3-0.3,0.3-0.7,0.1-1c-0.3-0.3-0.7-0.3-1-0.1
			c-0.3,0.3-0.3,0.7-0.1,1C39.3,12.1,39.8,12.1,40.1,11.9z M40.5,10.4c0.3-0.3,0.3-0.7,0.1-1c-0.3-0.3-0.7-0.3-1-0.1
			c-0.3,0.3-0.3,0.7-0.1,1C39.8,10.6,40.2,10.6,40.5,10.4z M40.5,10.4c0.3-0.3,0.3-0.7,0.1-1c-0.3-0.3-0.7-0.3-1-0.1
			c-0.3,0.3-0.3,0.7-0.1,1C39.8,10.6,40.2,10.6,40.5,10.4z M41.6,9.2c0.3-0.3,0.3-0.7,0.1-1c-0.3-0.3-0.7-0.3-1-0.1
			c-0.3,0.3-0.3,0.7-0.1,1C40.9,9.5,41.3,9.5,41.6,9.2z M41.6,9.2c0.3-0.3,0.3-0.7,0.1-1c-0.3-0.3-0.7-0.3-1-0.1
			c-0.3,0.3-0.3,0.7-0.1,1C40.9,9.5,41.3,9.5,41.6,9.2z M43.1,8.6c0.3-0.3,0.3-0.7,0.1-1c-0.3-0.3-0.7-0.3-1-0.1
			c-0.3,0.3-0.3,0.7-0.1,1C42.3,8.9,42.8,8.9,43.1,8.6z M43.1,8.6c0.3-0.3,0.3-0.7,0.1-1c-0.3-0.3-0.7-0.3-1-0.1
			c-0.3,0.3-0.3,0.7-0.1,1C42.3,8.9,42.8,8.9,43.1,8.6z M44.7,8.6c0.3-0.3,0.3-0.7,0.1-1c-0.3-0.3-0.7-0.3-1-0.1
			c-0.3,0.3-0.3,0.7-0.1,1C43.9,8.8,44.4,8.8,44.7,8.6z M44.7,8.6c0.3-0.3,0.3-0.7,0.1-1c-0.3-0.3-0.7-0.3-1-0.1
			c-0.3,0.3-0.3,0.7-0.1,1C43.9,8.8,44.4,8.8,44.7,8.6z M46.2,8.9c0.3-0.3,0.3-0.7,0.1-1c-0.3-0.3-0.7-0.3-1-0.1
			c-0.3,0.3-0.3,0.7-0.1,1C45.4,9.1,45.9,9.2,46.2,8.9z M46.2,8.9c0.3-0.3,0.3-0.7,0.1-1c-0.3-0.3-0.7-0.3-1-0.1
			c-0.3,0.3-0.3,0.7-0.1,1C45.4,9.1,45.9,9.2,46.2,8.9z M47.6,9.6c0.3-0.3,0.3-0.7,0.1-1c-0.3-0.3-0.7-0.3-1-0.1
			c-0.3,0.3-0.3,0.7-0.1,1C46.9,9.8,47.3,9.9,47.6,9.6z M47.6,9.6c0.3-0.3,0.3-0.7,0.1-1c-0.3-0.3-0.7-0.3-1-0.1
			c-0.3,0.3-0.3,0.7-0.1,1C46.9,9.8,47.3,9.9,47.6,9.6z"/>
		<path class="st1" d="M40,13.5c0.2-0.1,0.4-0.7,0.4-0.4c0.1,0.3,0.4,1,0.1,0.8C40.2,13.7,39.9,13.6,40,13.5 M39.7,12
			c0.2-0.1,0.6-0.5,0.5-0.3c0,0.3,0.2,1-0.1,0.8C39.8,12.2,39.6,12,39.7,12 M39.8,10.4c0.2,0,0.7-0.1,0.7,0s-0.2,0.7-0.3,0.5
			C40.1,10.8,39.8,10.4,39.8,10.4 M40.7,9.3c0.2,0,0.7,0.1,0.6,0.2c-0.1,0.1-0.6,0.6-0.6,0.5C40.8,9.8,40.7,9.3,40.7,9.3 M42,8.4
			c0.2,0,0.4,0.4,0.6,0.3c0.2,0-0.6,0.3-0.8,0.4C41.7,9.2,41.9,8.4,42,8.4 M42.9,8.5c0.2-0.1,0.4-0.6,0.5-0.5
			c0.1,0.2,0.5,0.5,0.2,0.5C43.3,8.5,42.8,8.6,42.9,8.5 M44.3,8.6c0.2,0,0.7-0.6,0.7-0.4c0,0.2,0.3,0.6,0.1,0.6
			C44.9,8.7,44.1,8.6,44.3,8.6 M45.7,9.1c0.2,0.1,0.9-0.5,0.8-0.3c0,0.2,0.1,0.9-0.1,0.9C46.3,9.5,45.6,9,45.7,9.1 M53.6,8.7
			c0.3,0.2,0.8,0.3,0.6,0.4c-0.2,0.1-0.9,0.6-0.8,0.4S53.6,8.7,53.6,8.7 M54.8,8.8c0.1-0.2,0.1-0.8,0.3-0.6s0.5,0.5,0.3,0.5
			C55.1,8.8,54.8,8.9,54.8,8.8 M56.1,8.7c0.2-0.1,0.5-0.7,0.6-0.4c0.1,0.2,0.4,0.5,0.2,0.5C56.6,8.7,56,8.7,56.1,8.7 M57.3,8.7
			c0.2,0,0.7-0.5,0.7-0.2C58,8.8,58.1,9,57.9,9C57.7,8.9,57.2,8.7,57.3,8.7 M58.6,9.4c0.2,0.1,0.7-0.2,0.7,0c-0.1,0.2,0,0.6-0.2,0.5
			C58.9,9.7,58.5,9.3,58.6,9.4 M59.3,10.3c0.2,0.1,0.7,0.1,0.6,0.3c-0.1,0.1-0.3,0.5-0.4,0.4C59.4,10.9,59.2,10.3,59.3,10.3
			 M59.7,11.6c0.2,0.1,0.7,0.3,0.4,0.4c-0.3,0.1-0.5,0.4-0.5,0.3C59.7,12.1,59.6,11.6,59.7,11.6 M59.5,13c0.1,0.2,0.5,0.6,0.4,0.6
			s-0.6,0.5-0.6,0.2C59.3,13.6,59.5,13,59.5,13"/>
		<g transform="translate(56.964)">
			<path class="st1" d="M0.9,2.7C0.8,2.4,0.5,2.2,0.6,1.8c0-0.2,0-0.4,0.1-0.4c0-0.1,0-0.5-0.1-0.6C0.4,0.7,0.4,0.4,0.4,0.5
				c0,0.1-0.2,0.4-0.2,0.5C0,1.3,0.1,1.7,0.2,2c0.1,0.1,0.4,0.6,0.4,0.8 M2.2,2.9c0-0.1-0.3-0.3-0.3-0.8C1.9,2,2,1.5,2,1.3
				c0-0.2,0.1-0.6,0-0.9C2,0.3,1.8,0,1.8,0.2c0,0.1-0.1,0.7-0.3,0.9C1.3,1.4,1.4,1.8,1.4,2c0.1,0.2,0.3,0.5,0.4,1"/>
		</g>
		<path class="st1" d="M60.4,3.5c0-0.2-0.1-1.6,0.1-1.9c0.1-0.1,0.6-0.6,0.6-0.7c0-0.1,0-0.1,0.1-0.2c0.1-0.1-0.1-0.1-0.2-0.1
			c-0.1,0-0.9,0.1-1.1,0.7c-0.1,0.1,0,0.7,0,0.9c0.1,0.1,0,0.8,0.1,1c0.1,0.1,0.1,0.3,0.1,0.4 M61.8,4.8c0.1,0.3,0-1.4,0-1.8
			c0.1-0.5,0.1-0.6,0.2-0.7c0.1-0.2,0-0.3,0.3-0.5c0.2-0.1,0.2-0.3,0.4-0.3c0.1,0-0.2-0.1-0.3,0c-0.1,0-0.8,0-1.1,0.9
			c0,0.1,0,0.6,0,0.9c0,0.1,0,0.2,0,0.3c0,0.1,0.1,1,0.1,1.2C61.4,4.6,61.7,4.6,61.8,4.8 M62.5,5.7c0-0.1,0.3-1.1,0.3-1.3
			c0-0.7,0.2-2.4,1.7-2.3c0.4,0,0.7,0.4,0.5,0.5c-0.1,0.1-0.1-0.3-0.7,0c-0.2,0.1-0.9,1-1.1,1.8c0,0.1-0.3,1.2-0.3,1.4 M63.5,8.2
			c0.1-0.2,0.2-0.5,0.4-1c0.1-0.4,0.4-1,0.6-1.2c0.4-0.3,0.7-1.5,1.3-1.6c0.1,0,0.7,0.1,0.5-0.1c-0.1-0.1-0.6-0.6-1.5-0.1
			c-0.2,0.1-1.2,1.1-1.3,2.3c0,0.1-0.1,0.9-0.4,1 M56.3,2.7c-0.6-0.4-0.6-0.9-0.6-1.1c0-0.2,0.1-0.5,0.2-0.7c0,0,0.1,0.1,0.2,0.2
			c0.1,0.1,0.1,0.5,0.1,0.9c0,0.1,0.3,0.4,0.4,0.6 M67,17.7C67,17.7,67.1,17.7,67,17.7c0.3,0,0.4-0.2,0.4-0.3
			C67.4,17.5,67.2,17.6,67,17.7z M64.9,17.7c0.1,0.1,0.2,0.1,0.2,0.1c0.2,0,0.2,0,0.3-0.1c0,0-0.1,0-0.1,0.1
			C65.3,17.8,65.1,17.8,64.9,17.7z M67.9,15.1C67.9,15,67.8,15,67.9,15.1c0,0-0.1,0.2-0.2,0.5C67.7,15.4,67.8,15.2,67.9,15.1z
			 M66.8,17.7c-0.1,0-0.1,0-0.3-0.1C66.6,17.6,66.7,17.7,66.8,17.7z M66.8,15.1c0-0.1,0-0.2,0-0.3C66.8,14.9,66.8,15,66.8,15.1z
			 M66.9,15.9c0-0.2,0-0.4,0-0.5C66.9,15.6,66.9,15.9,66.9,15.9z M66.6,14.3c0,0.1,0,0.1,0.1,0.1C66.7,14.4,66.7,14.3,66.6,14.3
			C66.7,14.3,66.6,14.3,66.6,14.3C66.6,14.3,66.6,14.3,66.6,14.3z M63.6,13.5c-0.2,0.1-0.8,0.8-1.1,0.9c-0.1,0,0-0.5,0-0.6
			c0-0.2,0.1-0.8,0.6-0.7C63.2,13.1,63.8,13.4,63.6,13.5z M65.3,14.7c-0.2-1.2-0.6-1.5-0.9-1.6c-0.4-0.2-0.7-0.1-0.8,0
			c-0.1,0-0.6,0-0.7,0c-0.5,0.3-0.7,1.6-0.8,1.7l0.3,0.3c0.4-0.6,0.9-1.3,1.2-1.5c0.1-0.1,0.5,1,0.6,2.5c0,1,0.4,1.4,0.6,1.6
			c0,0,0.5,0.2,0.5-0.6c0-0.2-0.2-1.2-0.5-1.5c-0.1-0.1-0.3-0.3-0.2-0.3c0.4,0.1,0.9,0.6,1.1,0.7c0.1,0,0,0,0-0.1
			c0,0-0.3-0.6-0.3-1.1c0-0.1,0.6,0.5,0.7,0.7c0,0,0,0,0,0c0,0,0-0.1-0.1-0.1C65.5,14.8,65.3,14.8,65.3,14.7L65.3,14.7z M66.7,12.1
			c-0.1,0-0.4,0-0.7-0.1C66.2,12.1,66.4,12.1,66.7,12.1z M66.7,12.1c0.1,0,0.2-0.1,0.2-0.2C66.9,12,66.8,12.1,66.7,12.1z M65.4,12
			C65.4,12,65.4,12,65.4,12C65.4,12,65.4,12,65.4,12C65.4,12,65.4,12.1,65.4,12z M65.4,12c0,0,0.1,0,0.1,0C65.5,12,65.4,12,65.4,12
			C65.4,12,65.4,12,65.4,12z M66.2,9.9c0-0.1,0.1,0.4,0.2,0.4c0,0.1,0.2,0.7,0.1,0.9c0-0.1,0.2-0.4,0.4-0.7c0,0,0,0-0.1,0.1
			c-0.2,0.3-0.2-0.2-0.2-0.4c0-0.9-0.5-1.3-0.8-1.6c-0.3-0.3-0.6-0.1-0.6-0.1c0,0-0.4,0-0.7,0c-0.1,0-0.1,0-0.2,0c0.1,0,0.1,0,0.2,0
			c0.3,0.2,0.5,0.8,0.4,0.8c0,0,0,0,0,0c0,0.3-0.1,1.9,0,2.3c0.1,0.2,0.2,0.3,0.3,0.3c-0.1,0-0.1-0.1-0.2-0.1
			c-0.1-0.1,0.4,0.2,0.3-0.3c0-0.2-0.4-0.4-0.4-0.9c0-0.2,0.1-0.7,0.1-0.7c0.1,0,0.2,0.3,0.2,0.4c0,0.1,0.4,0.3,0.4,0.5
			c0,0.1,0-0.5,0.2-0.7C66.2,10.2,66.2,10,66.2,9.9z M63.5,10.6c-0.1,0.1,0.3-1.6,0.3-1.6c0-0.1,0.1-0.2,0.2-0.3
			c-0.6,0.6-0.9,2.3-1,2.4l0.5,0.3c0.1-0.1,0.5-0.6,0.7-0.8c0.3-0.5,0.4-0.9,0.4-1c0,0-0.1,0.1-0.1,0.1
			C64.6,9.8,63.9,10.5,63.5,10.6L63.5,10.6z"/>
		<path class="st1" d="M57.8,21.4c0.1-0.1,0.2-0.2,0.3-0.3c1.3-1.3,3.1-5,3.6-5.2c0.7-0.2,0.7-0.5,0.7-0.6c0-0.1,0-0.2,0.1-0.2
			c0-0.1-0.4-0.4-0.4-0.4c-0.2,0.1-0.3,0-0.2-0.1c0.3-0.4,0.9-2.2,1.1-2.3c0.7-0.4,0.6-0.9,0.5-1c0-0.1-0.3-0.2-0.4-0.3
			c-0.1-0.1-0.1,0-0.2,0.1c0,0-0.2,0.2-0.2,0.1C63,9.9,62.8,9,62.9,8.9c0.7-0.2,0.7-0.5,0.7-0.6c0-0.1,0-0.5-0.4-0.6
			c-0.4,0-0.5,0.2-0.5,0.2c0,0-0.2,0.1-0.2,0c0-0.2-0.1-0.8-0.1-0.9c0-0.1,0.1-0.5,0.1-0.5c0.3,0,0.3-0.5,0.3-0.5
			c0-0.2,0-0.2-0.1-0.3c0,0-0.2-0.1-0.3-0.1c-0.3,0-0.3,0.6-0.3,0.7c0,0.1-0.1,0.1-0.1,0.1c0,0-0.1,0.1-0.1,0c0-0.2-0.3-0.9-0.3-0.9
			c0.2-0.4,0.2-0.5,0.2-0.6c0-0.1-0.1-0.5-0.5-0.3C61.3,4.7,61.2,5,61.2,5c0,0.1-0.1,0.1-0.1,0c-0.1-0.2-0.6-0.6-0.6-0.7
			c0-0.2,0-0.4,0-0.5c0-0.1,0-0.1,0-0.2c0-0.1-0.4-0.2-0.5,0c-0.1,0.1,0,0.5,0,0.5c-0.2,0.1-0.6-0.3-0.7-0.5
			c-0.1-0.1-0.1-0.3-0.1-0.6c0-0.2-0.3-0.2-0.5-0.2c-0.1,0,0,0.4,0,0.5c0.1,0.1-0.3-0.1-0.5-0.1C58.1,3.2,58,3,58,2.8
			c0-0.1-0.3-0.1-0.5-0.1c-0.1,0,0,0.3,0.1,0.4c0.1,0.1-0.4-0.1-0.6-0.2c-0.2-0.1-0.2-0.2-0.3-0.4c0-0.1-0.1-0.2-0.4-0.1
			c-0.2,0.1,0,0.3,0,0.3c0,0.1-0.5,0.1-0.6,0c-0.1-0.1-0.2-0.3-0.4-0.2C55.3,2.8,55.6,3,55.4,3c-1,0.1-1.2,0.5-0.8,0.3
			c0.6-0.2,2.1-0.1,2.4,0c8.8,2.5,3.9,13,0.3,16.9c0,0,0.1,0.1,0.1,0.1c0,0,0.2,0,0.3,0.2C57.8,20.6,57.9,20.9,57.8,21.4
			C57.8,21.4,57.8,21.4,57.8,21.4"/>
		<path class="st6" d="M63,11.3c0-0.1,0.5-2.9,1.6-2.8c0.2,0,0.6,0,0.7,0c0,0,0.3-0.2,0.6,0.1s0.8,0.8,0.8,1.6c0,0.2,0,0.7,0.2,0.4
			c0.1-0.1,0.7-0.7,0.5-0.3c-0.2,0.3-0.2,0.5-0.2,0.7c0,0.2,0,1-0.4,1c-0.6,0-0.7-0.1-1.3-0.1c-0.1,0-0.4,0-0.5-0.4
			c-0.1-0.5,0-2,0-2.3c0-0.1-0.2,0-0.2,0.1c-0.1,0.1-0.1,0.5-0.5,1.1c-0.1,0.2-0.6,0.8-0.7,0.9 M62.1,14.8c0.1-0.1,0.3-1.5,0.8-1.8
			c0.1-0.1,0.6,0,0.7,0c0.1,0,0.5-0.1,0.8,0c0.2,0.1,0.6,0.4,0.8,1.6c0,0.1,0.3,0.1,0.8,0.8c0,0.1,0.1,0.3,0.2-0.1
			c0-0.1,0.4-1.3,0.4-1.2c0,0,0.2,0.6,0.2,1c0,0.2,0,0.4,0,0.7c0,0.2,0-0.1,0.6-0.6c0.1-0.1,0.5-0.5,0.4-0.2
			c-0.1,0.1-0.2,0.6-0.3,0.8c-0.1,0.1-0.1,0.4-0.1,0.5c0.1,0.4,0.3,1.2-0.3,1.3c-0.5,0.1-0.4-0.1-0.9-0.1c-0.7,0-0.6,0.2-1,0.2
			c-0.1,0-0.8-0.3-0.9-1.8c-0.1-1.5-0.5-2.5-0.6-2.5c-0.3,0.2-0.8,1-1.2,1.6 M64.8,17.5c0.4,0.2,0.6-0.1,0.6-0.5
			c0-0.4-0.3-1.3-0.5-1.5c-0.5-0.5-0.1-0.3,0.3-0.1c0.2,0.2,0.7,0.7,0.5,0.4c-0.2-0.3-0.4-0.7-0.4-1.1 M65,11.8
			c0.2,0.2,0.6,0,0.4-0.3c-0.1-0.3-0.5-0.6-0.3-1.4c0.1-0.2,0.2,0.2,0.2,0.3c0.1,0.2,0.4,0.2,0.4,0.6c0,0,0-0.5,0.2-0.7
			c0.1-0.1,0.2-0.4,0.2-0.5s0.1,0.4,0.2,0.5c0.1,0.1,0.1,0.6,0.1,0.9c0,0.1,0.1-0.5,0.4-0.8 M64.4,8.5c0.1,0,0.7,0.2,0.5,1.2
			 M63.8,8.9c-0.2,0.4-0.4,1-0.4,2.3 M64.7,9.4c-0.2,0.4-0.9,1.1-1.2,1.2 M63.1,13.1c0.4,0,0.6,0.3,0.8,0.9 M62.7,13.4
			c-0.2,0.5,0,1.4-0.2,1.6 M63.7,13.4c-0.3,0.2-0.9,0.9-1.1,0.9 M65.5,12c0,0,0,0.1,0,0.2c0,0.1-0.2,0.5-0.2,0.6
			c0.1,0.1,0.2,0.1,0.2,0.1 M66.8,12c0,0,0.1,0.1,0.1,0.2c0,0.1,0,0.5,0.1,0.6c0.1,0.1,0.2,0,0.2,0 M65.8,12c0,0,0,0.2,0,0.2
			c0,0.1-0.1,0.3-0.1,0.5c0,0.1,0,0.2,0.2,0.2 M66.4,12.1c-0.1,0.3-0.1,0.5,0,0.7c0,0.1,0.1,0.2,0.1,0.2 M66.6,12.1
			c-0.1,0.3,0,0.5,0,0.7c0,0.1,0.1,0.2,0.2,0.2 M66.2,12c0,0-0.1,0.3-0.1,0.4c0,0.1-0.1,0.4,0,0.5c0.1,0.1,0,0.5,0,0.6
			c-0.1,0.2-0.2,1,0.1,0.9c0.1-0.1,0.1-0.2,0.1-0.3 M66.7,17.6c0,0.2,0.1,1,0.4,0.9 M67.1,17.6c0,0.2,0.1,0.8,0.4,0.7 M65.5,17.7
			c0,0,0.1,0.8-0.3,0.9 M65.9,17.6c0,0,0.1,1-0.3,1 M66.3,17.5c0,0-0.1,1.1,0.3,1.1 M66.1,17.5c0,0.1,0,0.8,0,0.9
			c0,0.1-0.3,1.5,0.1,1.9c0.1,0.1,0.5,0.2,0.3-0.4"/>
		<path class="st1" d="M52.9,18.6c0,0.3,0.4,0.6,0.9,0.6c0.5,0,0.9-0.2,0.9-0.5c0-0.3-0.4-0.6-0.9-0.6
			C53.3,18.1,52.9,18.4,52.9,18.6"/>
		<polygon class="st1" points="48.8,18.7 51.3,18.7 51.3,17.8 48.8,17.8 		"/>
		<polyline class="st1" points="57.9,19 57.5,19.6 56.4,18.8 57.7,18.4 57.9,19 		"/>
		<path class="st6" d="M56.4,19l1.4,0.2L56.4,19z M54.9,16.4c-0.1-0.5,0.4-0.6,0.5-0.5c0.5,0.2,0,1.2,0,1.2c1.9-0.9,0.1-2.9-0.7-1.6
			c-0.1,0.1,0.7-0.9-0.2-2.6c-1.2,1.4-0.7,2.6-0.8,2.5c-0.4-1.4-2.7,0.1-1.1,1.4c0,0-0.3-1,0.3-1.1c0.2,0,0.6,0.1,0.4,0.6L54.9,16.4
			z M55.1,16.7c0,0.2-0.2,0.3-0.4,0.3l-1.4-0.2c-0.2,0-0.3-0.2-0.3-0.3c0-0.2,0.2-0.3,0.4-0.3l1.4,0.2C55,16.4,55.2,16.5,55.1,16.7z
			 M58.1,14.4c1.8-3.9-0.8-4.8-1.8-4.8c-2.1,0.1-2.1,1.3-4.7,1.4"/>
		<path class="st6" d="M52,9.9c2.2,0,1.8-1.2,4.3-1.2c1.6,0,4.8,1,2.7,6.1 M49.8,5.1c-0.2-0.5-0.6-1.1-0.6-1.1H51
			c0,0-0.5,0.7-0.6,1.2 M49.7,6.1c-0.2,0.7-0.9,1.7-0.9,1.7 M51.3,7.8c0,0-0.7-1.1-0.9-1.7 M49.6,5.8c-0.5,0.1-1.2,0.6-1.2,0.6V4.7
			c0,0,0.7,0.5,1.2,0.6 M50.6,5.9c0.5,0.2,1.1,0.6,1.1,0.6V4.7c0,0-0.7,0.4-1.2,0.6 M49.6,10.2C49,10,48.6,9.4,48.6,8.7
			c0-0.8,0.7-1.5,1.5-1.5c0.8,0,1.5,0.7,1.5,1.5c0,0.7-0.4,1.2-1.1,1.4 M48.6,9h3 M49.7,7.3l0,1.1h-1.1 M50.5,7.3v1.1h1.1"/>
		<path class="st6" d="M49.5,15.1c-0.1-0.5-1.2-1.5-1.2-1.5h3.1c0,0-1,0.9-1.2,1.5L49.5,15.1z M50.4,15.2c0.4,0,1.3-0.9,1.3-0.9v2.4
			c0,0-0.9-0.9-1.3-0.9V15.2z M49.5,15.2c-0.4,0-1.3-0.9-1.3-0.9v2.4c0,0,0.9-0.9,1.3-0.9V15.2z M50.5,13.6c0,0,0.1-1.2,0.2-2.1
			c0.1-0.9,0.6-2.1,0.6-2.1h0.8c0,0-0.5,1.1-0.8,2.1c-0.2,0.8-0.2,2.1-0.2,2.1H50.5z M57.7,16.8c-0.2,0.6-0.9,1-1.7,1
			c-0.7,0-1.2-0.4-1.5-0.9L57.7,16.8z M53.4,16.8c-0.3,0.4-0.9,0.6-1.5,0.5c-0.9-0.1-1.6-0.8-1.5-1.6L53.4,16.8z M58.1,17.1
			c-0.2,0.4-0.3,0.9-0.5,1.5L58.1,17.1z M57.9,16.2c0.1-0.5-0.7-1.9-0.7-1.9l1.9,0.6c-0.2,0.4-0.4,0.8-0.6,1.3L57.9,16.2z
			 M57.9,16.2C57.9,16.2,57.9,16.2,57.9,16.2c-0.4-0.1-1-1.3-1-1.3l-0.7,2.3c0,0,1.1-0.6,1.5-0.5c0,0,0,0,0.1,0L57.9,16.2z
			 M54.6,18.8c0,0.3-0.4,0.5-0.9,0.5c-0.5,0-0.9-0.3-0.9-0.5c0-0.3,0.4-0.5,0.9-0.5C54.2,18.3,54.6,18.6,54.6,18.8z M48.7,18.9h2.5
			v-0.9h-2.5V18.9z M57.8,19.2l-0.4,0.6l-1-0.8l1.2-0.5L57.8,19.2z"/>
		<path class="st6" d="M42.3,18.2l0.2-0.7c0.2,0.3,0.8,0.5,1.7,0.5c0.8-0.1,1.5-0.4,1.6-0.8l0.4,0.6l0.2-0.7c0.2,0.4,1,0.6,1.9,0.5
			c0.8-0.2,1.5-0.6,1.5-1l0.3,0.8l0.3-0.8c0.1,0.4,0.7,0.8,1.5,1c0.9,0.2,1.7,0,1.9-0.5l0.2,0.7l0.4-0.6c0.1,0.4,0.8,0.7,1.6,0.8
			c0.8,0.1,1.5-0.1,1.7-0.5l0.2,0.7 M49.7,6.1c-0.2-0.2-0.3-0.5-0.1-0.8c0.2-0.2,0.5-0.3,0.8-0.1c0.2,0.2,0.3,0.5,0.1,0.8
			C50.2,6.3,49.9,6.3,49.7,6.1z M49.7,6.1c-0.2-0.2-0.3-0.5-0.1-0.8c0.2-0.2,0.5-0.3,0.8-0.1c0.2,0.2,0.3,0.5,0.1,0.8
			C50.2,6.3,49.9,6.3,49.7,6.1z M59.5,14.8c-0.3-0.2-0.3-0.7-0.1-1c0.3-0.3,0.7-0.3,1-0.1c0.3,0.2,0.3,0.7,0.1,1
			C60.2,15,59.8,15.1,59.5,14.8z M59.5,14.8c-0.3-0.2-0.3-0.7-0.1-1c0.3-0.3,0.7-0.3,1-0.1c0.3,0.2,0.3,0.7,0.1,1
			C60.2,15,59.8,15.1,59.5,14.8z M59.9,13.3c-0.3-0.2-0.3-0.7-0.1-1c0.3-0.3,0.7-0.3,1-0.1c0.3,0.2,0.3,0.7,0.1,1
			C60.6,13.5,60.2,13.6,59.9,13.3z M59.9,13.3c-0.3-0.2-0.3-0.7-0.1-1c0.3-0.3,0.7-0.3,1-0.1c0.3,0.2,0.3,0.7,0.1,1
			C60.6,13.5,60.2,13.6,59.9,13.3z M59.9,11.8c-0.3-0.2-0.3-0.7-0.1-1s0.7-0.3,1-0.1c0.3,0.2,0.3,0.7,0.1,1
			C60.7,12,60.2,12,59.9,11.8z M59.9,11.8c-0.3-0.2-0.3-0.7-0.1-1s0.7-0.3,1-0.1c0.3,0.2,0.3,0.7,0.1,1C60.7,12,60.2,12,59.9,11.8z
			 M59.5,10.3c-0.3-0.2-0.3-0.7-0.1-1c0.3-0.3,0.7-0.3,1-0.1c0.3,0.2,0.3,0.7,0.1,1C60.2,10.5,59.8,10.5,59.5,10.3z M59.5,10.3
			c-0.3-0.2-0.3-0.7-0.1-1c0.3-0.3,0.7-0.3,1-0.1c0.3,0.2,0.3,0.7,0.1,1C60.2,10.5,59.8,10.5,59.5,10.3z M58.4,9.1
			c-0.3-0.2-0.3-0.7-0.1-1c0.3-0.3,0.7-0.3,1-0.1c0.3,0.2,0.3,0.7,0.1,1C59.1,9.4,58.7,9.4,58.4,9.1z M58.4,9.1
			c-0.3-0.2-0.3-0.7-0.1-1c0.3-0.3,0.7-0.3,1-0.1c0.3,0.2,0.3,0.7,0.1,1C59.1,9.4,58.7,9.4,58.4,9.1z M56.9,8.6
			c-0.3-0.2-0.3-0.7-0.1-1c0.3-0.3,0.7-0.3,1-0.1c0.3,0.2,0.3,0.7,0.1,1C57.6,8.8,57.2,8.8,56.9,8.6z M56.9,8.6
			c-0.3-0.2-0.3-0.7-0.1-1c0.3-0.3,0.7-0.3,1-0.1c0.3,0.2,0.3,0.7,0.1,1C57.6,8.8,57.2,8.8,56.9,8.6z M53.8,8.8
			c-0.3-0.2-0.3-0.7-0.1-1s0.7-0.3,1-0.1c0.3,0.2,0.3,0.7,0.1,1C54.5,9,54.1,9.1,53.8,8.8z M53.8,8.8c-0.3-0.2-0.3-0.7-0.1-1
			s0.7-0.3,1-0.1c0.3,0.2,0.3,0.7,0.1,1C54.5,9,54.1,9.1,53.8,8.8z M52.4,9.5c-0.3-0.2-0.3-0.7-0.1-1c0.3-0.3,0.7-0.3,1-0.1
			c0.3,0.2,0.3,0.7,0.1,1C53.1,9.7,52.7,9.8,52.4,9.5z M52.4,9.5c-0.3-0.2-0.3-0.7-0.1-1c0.3-0.3,0.7-0.3,1-0.1
			c0.3,0.2,0.3,0.7,0.1,1C53.1,9.7,52.7,9.8,52.4,9.5z M57.7,16.6c0-0.3,0.3-0.5,0.5-0.5c0.2,0,0.4,0.3,0.4,0.6
			c0,0.3-0.3,0.5-0.5,0.5C57.8,17.1,57.7,16.9,57.7,16.6z M57.7,16.6c0-0.3,0.3-0.5,0.5-0.5c0.2,0,0.4,0.3,0.4,0.6
			c0,0.3-0.3,0.5-0.5,0.5C57.8,17.1,57.7,16.9,57.7,16.6z M49.6,10.2c-0.2-0.2-0.2-0.5,0-0.7c0.2-0.2,0.5-0.3,0.8-0.1
			c0.2,0.2,0.3,0.5,0.1,0.8c0,0,0,0,0,0L49.6,10.2z M49.6,11c-0.2-0.2-0.2-0.5,0-0.7c0.2-0.2,0.5-0.3,0.8-0.1
			c0.2,0.2,0.3,0.5,0.1,0.8c0,0,0,0,0,0L49.6,11z M49.6,11.8c-0.2-0.2-0.2-0.5,0-0.7c0.2-0.2,0.5-0.3,0.8-0.1
			c0.2,0.2,0.3,0.5,0.1,0.8c0,0,0,0,0,0L49.6,11.8z M49.6,12.6c-0.2-0.2-0.2-0.5,0-0.7c0.2-0.2,0.5-0.3,0.8-0.1
			c0.2,0.2,0.3,0.5,0.1,0.8c0,0,0,0,0,0L49.6,12.6z M49.7,13.4c-0.2-0.2-0.3-0.5-0.1-0.8c0.2-0.2,0.5-0.3,0.8-0.1
			c0.2,0.2,0.3,0.5,0.1,0.8C50.2,13.6,49.9,13.6,49.7,13.4z M49.7,13.4c-0.2-0.2-0.3-0.5-0.1-0.8c0.2-0.2,0.5-0.3,0.8-0.1
			c0.2,0.2,0.3,0.5,0.1,0.8C50.2,13.6,49.9,13.6,49.7,13.4z M49.7,15.9c-0.2-0.2-0.3-0.5-0.1-0.8c0.2-0.2,0.5-0.3,0.8-0.1
			c0.2,0.2,0.3,0.5,0.1,0.8C50.2,16.1,49.9,16.1,49.7,15.9z M49.7,15.9c-0.2-0.2-0.3-0.5-0.1-0.8c0.2-0.2,0.5-0.3,0.8-0.1
			c0.2,0.2,0.3,0.5,0.1,0.8C50.2,16.1,49.9,16.1,49.7,15.9z"/>
		<path class="st6" d="M55.3,8.6c-0.3-0.3-0.3-0.7-0.1-1c0.3-0.3,0.7-0.3,1-0.1c0.3,0.3,0.3,0.7,0.1,1C56,8.8,55.6,8.8,55.3,8.6z
			 M55.3,8.6c-0.3-0.3-0.3-0.7-0.1-1c0.3-0.3,0.7-0.3,1-0.1c0.3,0.3,0.3,0.7,0.1,1C56,8.8,55.6,8.8,55.3,8.6z M42.4,21.5
			c-0.3-0.3-0.3-0.4-0.2-0.8c0-0.2,0.4-0.6,0.6-0.6c0.1,0,0.2,0,0.3,0c0.1,0,0.2-0.2,0.6,0c0,0,0.1,0,0.2,0.1c0,0,0.4-0.3,0.8-0.2
			c0,0,0.1,0,0.2,0.1c0,0,0.3-0.3,0.7-0.1c0,0,0.2,0,0.2,0.1c0,0,0.3-0.2,0.7-0.1c0,0,0.1,0,0.2,0.1c0,0,0.3-0.2,0.7-0.1
			c0,0,0.1,0.1,0.2,0.1c0,0,0.2-0.2,0.7-0.1c0,0,0.1,0,0.1,0.1c0,0,0.3-0.2,0.7-0.1c0,0,0.2,0.1,0.2,0.1c0,0,0.3-0.2,0.7-0.1
			c0,0,0.1,0.1,0.2,0.1c0,0,0.2-0.2,0.7-0.1c0,0,0.1,0.1,0.1,0.1c0,0,0.3-0.2,0.8-0.1c0.1,0,0.1,0,0.1,0.1c0,0,0.4-0.2,0.8,0
			c0,0,0.1,0,0.1,0.1c0,0,0.3-0.2,0.7,0c0,0,0.1,0.1,0.1,0.1c0,0,0.3-0.2,0.7,0c0,0,0.1,0.1,0.2,0.1c0,0,0.3-0.2,0.7,0
			c0,0,0.1,0.1,0.2,0.1c0,0,0.3-0.2,0.7,0c0,0,0.1,0.1,0.2,0.1c0,0,0.4-0.2,0.8,0c0.1,0,0.1,0.1,0.2,0.1c0,0,0.2,0,0.3,0.1
			c0,0,0.4,0.5,0.1,1.2"/>
		<path class="st1" d="M55.4,21.7c0,0,0.5-0.5,1.5-0.2c0.1,0,0.4,0.1,0.7,0c0.1,0,0.9-0.3,1.4,0c0.1,0.1,0.8,0.6,0.9,1.5
			c0,0.1,0,0.5-0.1,0.5c0,0-3.3-0.3-3.3-0.3c0,0-0.4-0.7-0.4-0.7C56,22.4,55.7,21.9,55.4,21.7C55.4,21.7,55.4,21.7,55.4,21.7
			 M48.9,21.4c0,0,0.6-0.3,1.5-0.1c0,0,0.2,0,0.5,0c0.1,0,0.8-0.2,1.4,0.2c0.1,0,0.4,0.3,0.6,0.7c0,0.1,0.3,0.6,0.3,0.6
			c0,0-3.6-0.1-3.6-0.1c0,0-0.1-0.3-0.2-0.4c0-0.1-0.2-0.5-0.5-0.8C49.1,21.5,48.9,21.4,48.9,21.4 M42.5,21.5c0,0,0.6-0.4,1.5-0.2
			c0.1,0,0.3,0,0.4,0c0.1,0,0.7-0.2,1.2,0.1c0.1,0,0.5,0.2,0.8,0.9c0,0,0.3,0.6,0.3,0.6c0,0-3.4,0.2-3.4,0.2
			c-0.1-0.1-0.2-0.6-0.5-1.1C42.9,21.9,42.7,21.7,42.5,21.5C42.5,21.5,42.5,21.5,42.5,21.5"/>
		<path class="st1" d="M43.4,23c0,0,2.9-0.2,3.5-0.2c0,0,0.3,0.6,0.8,0.9c0,0-0.6,0.4-1.4,0.2c-0.1,0-0.6-0.2-1,0
			c0,0-0.7,0.3-1.3-0.1c-0.1,0-0.4-0.4-0.5-0.6C43.5,23.1,43.4,23,43.4,23 M49.8,22.8c0,0,2.7,0,3.6,0.1c0,0,0.2,0.5,0.7,0.9
			c0,0-0.6,0.5-1.5,0.2c-0.1,0-0.3-0.2-0.9-0.1c-0.1,0-0.9,0.2-1.4-0.4c-0.1-0.1-0.2-0.3-0.4-0.6C49.8,22.9,49.8,22.8,49.8,22.8
			 M56.3,23.2c0,0,2.2,0.2,3.4,0.3c0,0-0.2,0.9-0.9,0.8c-0.1,0-0.4-0.2-1.1-0.1c-0.1,0-0.4,0.2-0.9-0.2c-0.1-0.1-0.3-0.3-0.4-0.5
			C56.3,23.3,56.3,23.2,56.3,23.2"/>
		<path class="st6" d="M44.1,23.9c-0.1,0-0.6,0.4-1.4,0.2c-0.5-0.1-1.2,0.6-2-0.3c-0.8-0.8-0.2-2.5,1.2-2.5c0,0,0.8-0.1,1.4,1.4
			c0,0.1,0.7,1.8,2.1,1.2c0.1,0,0.3-0.1,0.9,0c0.4,0.1,1.1,0,1.4-0.2 M42.5,21.6c0.1-0.1,0.6-0.4,1.6-0.2c0.1,0,0.3,0,0.5,0
			c0.4-0.1,1.1-0.2,1.7,0.6c0.4,0.5,0.5,1.2,1.4,1.8c0.1,0.1,0.6,0.3,1.1,0.1c0.1,0,0.3-0.1,0.5,0c0.2,0.1,0.9,0.1,1.2-0.1
			 M45.8,21.5c0.1,0,0.2,0.1,0.7-0.2c0.2-0.1,0.5-0.2,1,0c0.2,0.1,0.4,0,0.5,0c0.1,0,1.2-0.3,1.7,1.1c0,0.1,0.3,1.4,1.4,1.5
			c0.6,0,0.9-0.2,1.5,0c0.1,0,1,0.3,1.5-0.2 M49,21.5c0,0,0.6-0.3,1.4-0.1c0.1,0,0.3,0.1,0.6,0c0.1,0,1.1-0.3,1.8,0.7
			c0.5,0.7,0.9,2.1,2.1,2c0.1,0,0.6-0.1,0.9,0.1c0.1,0.1,0.7,0.2,1.2-0.1 M52.4,21.6c0,0,0.5-0.4,1.5,0c0.4,0.2,0.9-0.2,1.4,0.2
			c0.9,0.8,1,2.4,2,2.4c0.3,0,0.7-0.2,1.3,0c0.8,0.2,1.6-1.3,0.3-2.5c-0.2-0.2-0.5-0.5-1.5-0.2c-0.1,0-0.4,0.1-0.9-0.1
			c-0.1,0-0.8-0.1-1.3,0.2"/>
		<path class="st1" d="M40.8,22.3c0,0.1-0.3,1,0.8,1.6c0.1,0-0.2-0.1-0.1-1.3c0-0.1,0.5,1,1.8,0.9c0,0-0.3-0.1-0.4-0.6
			c0-0.1-0.4-1-1.1-1.4c0,0,0.3,0.3,0.5,0.9c0,0.1,0.1,0.4,0.1,0.4c0,0-0.5-0.2-1-0.7c0,0-0.2,0.8-0.1,1c0,0.1-0.4-0.4-0.5-0.9
			C40.8,22.3,40.8,22.3,40.8,22.3 M46.6,21.7c0.6,0.2,1,0.9,1.3,1.1c0,0-0.3-0.5-0.3-1.1c0,0,0.8,0.6,1,0.7c0,0,0.5,0.5,0.6,0.4
			c0.1,0-0.4-0.8-0.8-1.2c-0.1-0.1,0.4,0.1,1.3,1.4c0.1,0.1,0.2,0.4,0.3,0.4c0,0-1,0.1-2-1.2c0,0,0.2,0.6,0.8,1.2
			c0,0.1-0.9,0-1.6-1.1C47.1,22.3,46.9,21.9,46.6,21.7C46.7,21.7,46.6,21.7,46.6,21.7 M53,21.7c0.6,0.2,0.9,0.9,1.3,1.3
			c0,0-0.3-0.3-0.2-1.2c0,0,0.2,0.4,0.7,0.8c0,0,0.6,0.5,0.7,0.4c0.1,0-0.3-0.9-0.6-1.3c-0.1-0.1,0.4,0.1,1.2,1.4
			c0.1,0.1,0.3,0.4,0.4,0.5c0,0-0.9,0.2-2-1.3c0-0.1,0.1,0.6,0.6,1.2c0,0.1-0.8,0-1.4-1.2C53.5,22.4,53.3,22,53,21.7
			C53.1,21.8,53,21.7,53,21.7 M48.8,20.5c0.6,0,0.6,0.3,1.3,0.3c0.4,0,0.7-0.1,0.6-0.1c-0.3,0-0.7,0.1-1.1-0.2c0,0,0.7,0,1-0.1
			c-0.4-0.1-1.1,0-1-0.1c0.4-0.3,0.8-0.2,1.1-0.2c0.1,0-0.2-0.1-0.6-0.1C49.3,20.2,49.3,20.4,48.8,20.5L48.8,20.5 M52,20.6
			c0.6,0.1,0.6,0.4,1.4,0.4c0.4,0,0.8-0.1,0.7-0.1c-0.3,0-0.8,0.1-1.1-0.2c0,0,0.7,0,1.1,0c-0.4-0.1-1.1-0.1-1.1-0.1
			c0.4-0.2,0.9-0.1,1.2-0.1c0.1,0-0.2-0.1-0.6-0.2C52.6,20.3,52.6,20.5,52,20.6L52,20.6 M55,20.8c0.6,0.1,0.6,0.4,1.4,0.4
			c0.4,0,0.8-0.1,0.7-0.1c-0.3,0-0.8,0.1-1.1-0.2c0,0,0.7,0.1,1.1,0c-0.4-0.1-1.1-0.1-1.1-0.2c0.4-0.2,0.9-0.1,1.2-0.1
			c0.1,0-0.2-0.1-0.6-0.2C55.7,20.5,55.6,20.7,55,20.8L55,20.8 M45.7,20.6c0.6,0,0.7,0.3,1.5,0.2c0.4,0,0.7-0.2,0.6-0.2
			c-0.3,0-0.7,0.2-1.2-0.1c0,0,0.7-0.1,1.1-0.1c-0.4,0-1.1,0-1.1,0c0.4-0.3,0.8-0.2,1.1-0.2c0.1,0-0.2-0.1-0.7-0.1
			C46.3,20.2,46.3,20.5,45.7,20.6L45.7,20.6 M42.9,20.8c0.6,0,0.7,0.3,1.5,0.2c0.4,0,0.7-0.2,0.6-0.2c-0.3,0-0.7,0.2-1.2-0.1
			c0,0,0.7-0.1,1.1-0.2c-0.4,0-1.1,0-1.1,0c0.4-0.3,0.8-0.2,1.1-0.2c0.1,0-0.2-0.1-0.7-0.1C43.5,20.4,43.5,20.7,42.9,20.8L42.9,20.8
			"/>
		<path class="st6" d="M41.8,17.1c0.2,0.5,0.4,1,0.5,1.6 M40.7,14.8c0.2,0.4,0.4,0.9,0.7,1.4 M42.3,16.6c0-0.3-0.3-0.5-0.5-0.5
			c-0.2,0-0.4,0.3-0.4,0.5c0,0.3,0.3,0.5,0.5,0.5C42.2,17.1,42.4,16.9,42.3,16.6z"/>
		<path class="st6" d="M41.4,16.1c-0.2,0.1-0.2,0.3-0.2,0.6c0.1,0.3,0.3,0.5,0.5,0.5 M57.4,19.6c0,0.1-0.1,0.6-0.1,0.7 M58.1,17.1
			c-0.2,0.5-0.4,1-0.5,1.6 M59.1,14.8c-0.2,0.4-0.4,0.9-0.6,1.4 M58.4,16.1c0.2,0.1,0.2,0.3,0.2,0.6c-0.1,0.3-0.3,0.5-0.5,0.5"/>
		<path class="st6" d="M57.9,16.6c0-0.3,0.3-0.5,0.5-0.5c0.2,0,0.4,0.3,0.4,0.6c0,0.3-0.3,0.5-0.5,0.5C58,17.1,57.8,16.9,57.9,16.6z
			 M51.4,12.1c0.3-0.3,1.2-0.8,2.3-0.6c1.3,0.2,1.1,0.2,1.2,0.2c0.1-0.1,1.4-0.8,2.8-0.5c0.2,0.1,1,0.4,1,0.6L51.4,12.1z M48.7,12.1
			c-0.3-0.3-1.2-0.8-2.3-0.6c-1.3,0.2-1.1,0.2-1.2,0.2c-0.1-0.1-1.4-0.8-2.8-0.5c-0.2,0.1-1,0.4-1,0.6L48.7,12.1z"/>
	</g>
</g>
</svg>
